<?xml version="1.0" encoding="utf-8" ?>
<svg baseProfile="full" height="1200" version="1.1" width="1200" xmlns="http://www.w3.org/2000/svg" xmlns:ev="http://www.w3.org/2001/xml-events" xmlns:xlink="http://www.w3.org/1999/xlink"><defs /><rect fill="#BBE0EF" height="100%" width="100%" x="0" y="0" /><path d="M 853.70,119.18 C 853.98,123.06 851.41,131.90 850.89,135.33 C 850.38,138.76 849.29,144.74 849.40,147.76 C 849.51,150.79 852.12,157.59 851.81,160.56 C 851.51,163.53 848.53,169.98 846.84,172.52 C 845.16,175.05 840.07,179.61 837.78,181.67 C 835.48,183.72 830.40,188.17 827.73,189.62 C 825.06,191.08 818.51,193.52 815.53,193.80 C 812.54,194.08 805.77,192.59 802.85,191.95 C 799.94,191.32 794.28,189.10 791.25,188.53 C 788.22,187.96 780.66,188.27 777.61,187.21 C 774.56,186.14 767.88,182.11 765.81,179.66 C 763.74,177.20 761.49,169.88 760.38,166.77 C 759.27,163.65 756.92,156.89 756.53,153.68 C 756.14,150.48 756.27,143.12 757.12,140.07 C 757.97,137.02 762.01,130.97 763.61,128.27 C 765.22,125.57 768.88,120.35 770.52,117.59 C 772.16,114.84 775.21,108.16 777.30,105.31 C 779.39,102.46 784.89,96.40 787.93,93.84 C 790.97,91.27 798.79,85.02 802.64,83.91 C 806.50,82.80 815.96,83.82 820.04,84.58 C 824.12,85.33 833.24,88.03 836.66,90.24 C 840.08,92.45 846.52,99.55 848.56,103.03 C 850.61,106.50 853.42,115.31 853.70,119.18 Z" fill="#F16D34" fill-opacity="0.40137333184744867" stroke="none" /><path d="M 804.42,993.95 C 804.48,985.02 805.84,963.51 810.10,955.99 C 814.36,948.48 832.84,936.64 839.92,931.34 C 846.99,926.04 861.74,916.00 869.06,911.83 C 876.37,907.67 892.91,897.65 900.88,896.65 C 908.86,895.64 928.13,900.27 935.51,903.46 C 942.89,906.65 957.29,917.73 962.36,923.24 C 967.42,928.75 974.37,943.64 977.73,949.36 C 981.09,955.08 987.50,965.67 990.34,970.92 C 993.18,976.17 1000.26,987.51 1001.39,993.15 C 1002.53,998.79 1001.14,1012.32 999.80,1017.94 C 998.46,1023.55 991.92,1034.08 990.20,1039.97 C 988.48,1045.87 988.78,1062.20 985.45,1067.05 C 982.12,1071.90 968.10,1077.54 962.48,1080.37 C 956.86,1083.21 944.65,1088.99 938.60,1090.67 C 932.55,1092.35 918.21,1095.20 912.07,1094.38 C 905.93,1093.57 893.29,1086.56 887.45,1083.88 C 881.61,1081.19 869.83,1075.12 863.37,1072.00 C 856.91,1068.87 840.04,1062.80 833.59,1057.81 C 827.14,1052.82 813.12,1038.09 809.62,1030.42 C 806.12,1022.76 804.36,1002.88 804.42,993.95 Z" fill="#FF986A" fill-opacity="0.44192997118329164" stroke="none" /><path d="M 704.78,995.66 C 700.32,997.04 688.58,995.06 684.18,995.15 C 679.77,995.25 671.96,996.28 668.05,996.47 C 664.14,996.66 655.54,997.30 651.58,996.72 C 647.62,996.13 638.71,993.54 635.08,991.57 C 631.45,989.60 624.72,983.29 621.33,980.29 C 617.93,977.28 609.73,970.53 606.81,966.53 C 603.88,962.53 598.30,952.10 596.93,946.98 C 595.57,941.85 594.49,929.20 595.46,923.83 C 596.43,918.46 601.62,906.53 605.00,902.23 C 608.38,897.93 618.82,890.45 623.64,888.00 C 628.45,885.54 640.05,883.10 645.13,881.77 C 650.20,880.45 660.87,877.24 665.95,876.95 C 671.03,876.66 682.37,878.16 687.45,879.37 C 692.52,880.58 703.92,884.18 708.26,887.04 C 712.59,889.91 720.79,898.85 723.56,903.24 C 726.32,907.63 729.82,918.69 731.33,923.64 C 732.85,928.60 736.02,939.48 736.18,944.53 C 736.33,949.59 734.39,961.05 732.61,965.75 C 730.83,970.45 724.69,980.10 721.35,983.69 C 718.01,987.28 709.24,994.29 704.78,995.66 Z" fill="#161E54" fill-opacity="0.43329789888764597" stroke="none" /><path d="M 239.68,534.56 C 232.09,538.57 209.60,530.19 200.14,530.11 C 190.69,530.03 168.91,537.20 160.92,533.91 C 152.92,530.62 139.48,509.64 133.55,502.70 C 127.61,495.77 116.81,482.23 111.44,476.13 C 106.07,470.02 95.64,457.76 88.81,451.83 C 81.99,445.91 57.99,434.45 54.60,426.78 C 51.21,419.10 59.47,396.91 60.56,387.87 C 61.65,378.84 61.61,359.92 63.68,351.50 C 65.76,343.09 73.64,325.40 77.89,317.74 C 82.14,310.09 92.49,293.05 99.11,287.72 C 105.73,282.38 124.87,275.49 133.06,273.29 C 141.25,271.09 159.48,271.54 167.38,269.35 C 175.29,267.17 191.52,254.51 198.96,255.05 C 206.40,255.59 221.31,272.01 229.39,273.86 C 237.47,275.71 255.72,271.14 266.29,270.47 C 276.86,269.81 306.96,265.10 317.47,268.31 C 327.98,271.53 347.85,288.50 353.88,297.27 C 359.91,306.04 366.30,330.71 367.73,341.43 C 369.15,352.14 369.13,376.64 365.72,386.56 C 362.30,396.47 348.83,418.05 339.28,424.08 C 329.73,430.10 294.64,433.02 286.11,436.77 C 277.58,440.51 270.89,448.12 268.16,455.31 C 265.43,462.51 266.77,487.22 263.35,496.73 C 259.93,506.23 247.26,530.56 239.68,534.56 Z" fill="#FF986A" fill-opacity="0.46623742537277135" stroke="none" /><path d="M 257.07,947.71 C 267.16,954.54 292.04,971.88 299.39,982.53 C 306.75,993.17 317.49,1023.16 318.37,1036.42 C 319.25,1049.67 311.74,1080.38 306.73,1092.99 C 301.71,1105.61 286.55,1133.35 276.55,1141.56 C 266.55,1149.77 235.87,1159.52 223.38,1161.41 C 210.90,1163.30 184.10,1155.78 172.50,1157.35 C 160.90,1158.91 137.21,1175.29 126.72,1174.47 C 116.23,1173.65 94.86,1156.44 85.08,1150.49 C 75.30,1144.54 52.34,1133.18 45.20,1124.92 C 38.06,1116.67 26.42,1092.37 25.59,1081.70 C 24.76,1071.02 35.58,1045.98 38.27,1035.98 C 40.95,1025.97 44.84,1007.12 47.95,998.34 C 51.07,989.56 59.60,971.81 64.22,962.83 C 68.85,953.84 79.27,933.15 86.49,923.44 C 93.71,913.73 113.13,887.86 124.38,881.90 C 135.63,875.93 169.32,868.46 180.24,873.71 C 191.16,878.96 206.15,916.76 215.37,925.64 C 224.59,934.52 246.99,940.89 257.07,947.71 Z" fill="#FF986A" fill-opacity="0.5046597020899474" stroke="none" /><path d="M 48.51,292.97 C 47.47,287.67 47.02,274.82 48.60,269.76 C 50.17,264.70 58.06,254.74 61.60,250.80 C 65.15,246.85 73.76,239.35 78.12,236.85 C 82.48,234.36 93.17,230.38 97.95,229.97 C 102.73,229.56 113.57,231.94 117.95,233.41 C 122.33,234.88 130.60,239.98 134.49,242.22 C 138.37,244.45 146.71,249.08 150.31,252.05 C 153.91,255.02 162.27,262.69 164.49,266.98 C 166.71,271.27 168.86,282.76 168.81,287.78 C 168.76,292.79 166.26,304.28 164.07,308.78 C 161.88,313.29 153.91,321.10 150.56,325.31 C 147.20,329.51 140.61,340.62 136.12,343.81 C 131.64,347.00 118.77,351.57 113.16,351.89 C 107.54,352.21 94.84,348.40 89.33,346.50 C 83.83,344.60 71.14,339.97 67.29,336.06 C 63.45,332.15 59.54,319.08 57.28,313.91 C 55.03,308.74 49.56,298.26 48.51,292.97 Z" fill="#F16D34" fill-opacity="0.335678540560987" stroke="none" /><path d="M 935.60,947.29 C 927.21,951.22 904.94,960.04 895.61,959.74 C 886.29,959.43 864.96,950.74 857.90,944.74 C 850.84,938.74 839.84,918.54 836.76,909.72 C 833.68,900.89 831.66,879.91 832.22,871.21 C 832.79,862.51 839.97,844.61 841.47,837.22 C 842.98,829.82 843.55,816.11 844.80,809.59 C 846.05,803.07 851.43,790.95 851.87,782.86 C 852.31,774.77 845.85,750.20 848.45,742.17 C 851.04,734.14 866.64,721.67 873.47,715.97 C 880.30,710.26 896.96,696.32 905.36,694.60 C 913.77,692.89 934.58,700.48 943.49,701.65 C 952.40,702.82 971.25,702.22 979.59,704.36 C 987.94,706.51 1004.26,715.96 1013.07,719.54 C 1021.88,723.11 1047.05,727.54 1053.01,734.17 C 1058.97,740.79 1060.70,765.44 1062.73,774.76 C 1064.76,784.08 1069.37,802.93 1069.93,811.83 C 1070.49,820.73 1068.22,839.83 1067.42,848.93 C 1066.62,858.04 1067.94,880.59 1063.24,887.72 C 1058.53,894.84 1036.76,905.17 1028.20,908.33 C 1019.65,911.49 999.48,911.81 991.96,914.05 C 984.44,916.29 972.33,923.00 965.56,926.98 C 958.80,930.97 943.99,943.36 935.60,947.29 Z" fill="#FF986A" fill-opacity="0.43420823985622614" stroke="none" /><path d="M 762.55,274.15 C 779.17,271.63 804.03,271.07 815.41,267.25 C 826.79,263.44 847.09,242.69 857.39,242.36 C 867.69,242.03 892.78,257.59 901.24,264.50 C 909.69,271.42 920.08,293.59 927.83,300.00 C 935.57,306.41 957.80,311.49 965.77,317.90 C 973.74,324.31 994.35,344.12 994.26,353.45 C 994.18,362.77 967.51,385.39 965.04,395.61 C 962.58,405.82 973.70,427.20 973.71,438.55 C 973.72,449.91 971.46,481.18 965.13,490.24 C 958.79,499.29 931.96,509.32 920.93,514.02 C 909.90,518.71 885.84,525.39 873.20,529.39 C 860.55,533.39 830.25,546.57 815.57,547.37 C 800.90,548.18 763.49,543.64 750.89,536.10 C 738.30,528.57 719.86,497.50 710.61,484.57 C 701.36,471.63 681.82,443.63 673.81,428.33 C 665.79,413.02 643.40,373.83 643.78,357.02 C 644.15,340.22 662.67,298.27 676.92,288.32 C 691.17,278.38 745.93,276.68 762.55,274.15 Z" fill="#161E54" fill-opacity="0.5275716717595764" stroke="none" /><path d="M 725.56,398.76 C 716.64,399.15 696.43,394.11 687.90,390.80 C 679.36,387.50 661.98,376.67 654.42,371.19 C 646.86,365.71 629.91,352.75 624.93,345.13 C 619.94,337.50 612.29,316.87 612.85,307.63 C 613.42,298.39 626.47,276.41 629.65,268.14 C 632.82,259.87 635.13,244.60 639.32,238.70 C 643.51,232.80 661.63,224.96 664.58,218.98 C 667.54,213.00 661.63,194.77 663.94,188.87 C 666.26,182.97 678.43,173.23 683.90,169.81 C 689.37,166.39 703.24,160.99 709.54,160.34 C 715.84,159.69 730.39,163.58 736.42,164.38 C 742.45,165.19 754.48,165.58 759.78,167.03 C 765.09,168.49 775.87,173.99 780.64,176.52 C 785.41,179.05 795.32,184.89 799.54,188.11 C 803.76,191.34 812.54,199.19 815.82,203.36 C 819.10,207.54 823.10,218.15 826.87,222.90 C 830.65,227.65 844.78,237.37 847.29,242.96 C 849.80,248.56 849.10,263.44 847.81,269.49 C 846.51,275.54 839.14,287.67 836.49,293.38 C 833.84,299.09 828.71,311.31 825.69,317.07 C 822.67,322.84 815.48,335.50 811.32,341.39 C 807.16,347.28 796.91,360.60 791.02,366.14 C 785.13,371.69 770.09,383.68 762.24,387.60 C 754.38,391.51 734.48,398.38 725.56,398.76 Z" fill="#F16D34" fill-opacity="0.3601152564753846" stroke="none" /><path d="M 634.48,352.65 C 649.38,352.08 684.33,375.82 694.47,387.61 C 704.61,399.41 714.15,436.07 719.01,450.94 C 723.87,465.80 735.90,497.36 734.97,511.48 C 734.05,525.59 718.74,556.57 711.33,568.58 C 703.92,580.58 683.37,602.31 673.22,611.52 C 663.06,620.74 639.35,639.80 626.72,645.36 C 614.08,650.92 581.50,659.42 567.93,657.86 C 554.36,656.30 520.71,643.43 513.64,632.37 C 506.57,621.31 512.42,577.64 509.02,565.67 C 505.62,553.70 488.19,541.60 485.31,532.64 C 482.43,523.68 481.61,499.55 485.02,491.02 C 488.44,482.48 507.15,467.91 513.77,461.52 C 520.39,455.12 533.40,445.99 540.19,437.70 C 546.98,429.41 559.04,402.63 570.35,392.43 C 581.67,382.22 619.59,353.23 634.48,352.65 Z" fill="#FF986A" fill-opacity="0.41071835732967943" stroke="none" /><path d="M 597.41,196.87 C 592.07,188.71 584.12,170.11 580.80,161.83 C 577.48,153.56 572.31,136.28 569.77,127.91 C 567.23,119.55 563.84,102.54 559.62,92.12 C 555.40,81.71 533.30,51.21 534.64,41.13 C 535.97,31.05 560.57,12.71 570.76,8.13 C 580.95,3.54 609.22,3.37 619.54,2.93 C 629.87,2.49 648.49,5.04 656.78,4.46 C 665.07,3.88 679.61,1.10 688.60,-1.89 C 697.60,-4.88 720.25,-18.53 731.75,-20.46 C 743.24,-22.40 772.95,-22.14 784.43,-18.02 C 795.92,-13.90 820.72,3.80 827.43,13.84 C 834.14,23.88 843.08,53.64 840.32,65.62 C 837.57,77.60 810.96,103.80 804.44,113.69 C 797.91,123.57 791.62,141.17 785.94,147.97 C 780.27,154.77 762.80,163.89 757.15,170.34 C 751.50,176.80 745.04,196.23 738.85,201.77 C 732.67,207.30 714.13,212.39 705.59,216.45 C 697.05,220.50 677.32,233.96 667.69,235.56 C 658.06,237.16 633.77,234.44 625.34,229.80 C 616.91,225.15 602.76,205.02 597.41,196.87 Z" fill="#161E54" fill-opacity="0.3253841646399068" stroke="none" /><path d="M 1128.45,178.50 C 1119.69,178.03 1099.11,185.11 1093.04,180.47 C 1086.97,175.83 1082.87,146.22 1077.89,139.85 C 1072.91,133.47 1061.27,130.17 1051.51,127.34 C 1041.76,124.51 1009.05,122.53 996.58,116.29 C 984.11,110.06 952.44,86.85 947.62,75.37 C 942.80,63.90 950.34,31.70 956.42,20.66 C 962.51,9.62 992.30,-4.09 998.34,-16.62 C 1004.38,-29.15 998.14,-75.51 1006.75,-83.73 C 1015.36,-91.94 1056.35,-85.37 1070.09,-85.07 C 1083.82,-84.76 1108.96,-80.79 1121.22,-81.19 C 1133.47,-81.59 1161.41,-91.59 1172.20,-88.40 C 1182.98,-85.22 1203.83,-63.80 1211.10,-54.66 C 1218.37,-45.52 1226.86,-21.47 1232.78,-12.23 C 1238.70,-2.99 1252.85,13.01 1260.46,22.35 C 1268.07,31.70 1295.49,54.92 1296.21,65.66 C 1296.92,76.41 1272.92,101.77 1266.41,111.92 C 1259.91,122.07 1248.10,141.17 1242.01,150.25 C 1235.92,159.33 1224.79,183.50 1215.67,187.61 C 1206.55,191.71 1176.49,185.52 1166.03,184.43 C 1155.56,183.34 1137.21,178.98 1128.45,178.50 Z" fill="#F16D34" fill-opacity="0.5381872937903627" stroke="none" /><path d="M 261.02,210.29 C 260.02,205.50 258.22,194.93 257.39,189.12 C 256.56,183.32 253.31,168.43 254.10,161.92 C 254.89,155.41 260.14,140.45 263.97,134.89 C 267.79,129.32 280.00,119.31 285.98,115.54 C 291.96,111.78 306.80,105.02 313.82,103.51 C 320.85,102.01 337.62,101.26 344.50,102.98 C 351.39,104.70 365.94,113.19 371.18,117.85 C 376.41,122.51 384.54,136.32 388.13,141.80 C 391.73,147.28 398.91,158.10 401.17,163.50 C 403.42,168.91 406.11,181.33 406.91,186.86 C 407.71,192.39 408.23,204.24 407.83,209.57 C 407.43,214.90 404.63,225.92 403.59,231.27 C 402.54,236.61 400.69,248.32 399.13,254.11 C 397.56,259.90 393.95,274.17 390.53,279.51 C 387.12,284.85 376.05,294.01 370.67,298.60 C 365.29,303.19 352.39,315.70 345.70,317.76 C 339.02,319.82 321.65,318.20 314.98,315.79 C 308.31,313.38 294.68,303.01 290.12,297.68 C 285.56,292.35 279.35,277.26 277.00,271.34 C 274.65,265.42 271.90,253.43 270.55,248.35 C 269.20,243.28 266.90,233.63 265.76,229.06 C 264.61,224.49 262.03,215.09 261.02,210.29 Z" fill="#FF986A" fill-opacity="0.6147475004299559" stroke="none" /><path d="M 421.24,1174.49 C 413.39,1166.17 394.04,1151.67 383.24,1142.63 C 372.44,1133.60 337.18,1111.68 331.22,1099.20 C 325.26,1086.73 331.70,1053.20 333.57,1038.68 C 335.43,1024.16 339.24,990.06 346.79,978.22 C 354.34,966.38 384.49,947.72 396.48,940.01 C 408.47,932.30 433.99,916.80 446.68,913.96 C 459.38,911.11 489.78,921.55 502.27,916.30 C 514.76,911.05 537.89,874.75 550.75,870.21 C 563.61,865.68 598.17,871.22 609.45,878.50 C 620.74,885.79 638.67,918.42 644.79,930.92 C 650.91,943.42 656.25,971.90 660.47,982.66 C 664.69,993.41 673.34,1011.43 679.96,1020.56 C 686.59,1029.70 710.85,1048.14 715.69,1058.80 C 720.53,1069.47 721.04,1097.17 720.29,1109.41 C 719.54,1121.66 714.01,1149.09 709.45,1160.85 C 704.88,1172.60 692.34,1200.64 682.26,1207.37 C 672.19,1214.11 637.65,1214.59 625.48,1216.97 C 613.31,1219.34 591.43,1225.70 580.82,1227.16 C 570.21,1228.61 546.65,1232.13 537.07,1229.09 C 527.48,1226.06 511.56,1203.94 500.96,1201.88 C 490.35,1199.82 458.24,1215.22 448.67,1211.94 C 439.10,1208.65 429.09,1182.81 421.24,1174.49 Z" fill="#F16D34" fill-opacity="0.31062804479968587" stroke="none" /><path d="M 996.61,281.84 C 993.40,290.22 989.07,311.47 983.47,318.01 C 977.86,324.56 958.52,334.57 949.90,336.41 C 941.28,338.25 920.16,327.60 911.62,333.37 C 903.08,339.14 887.44,381.03 878.71,384.52 C 869.99,388.01 850.07,364.38 838.92,362.42 C 827.76,360.47 800.04,368.65 785.79,368.22 C 771.53,367.80 731.25,366.37 720.11,358.88 C 708.97,351.40 689.40,320.02 692.95,305.86 C 696.51,291.70 743.61,253.43 749.72,240.88 C 755.83,228.33 742.43,210.32 743.88,201.28 C 745.34,192.24 756.35,173.00 761.85,165.54 C 767.36,158.08 785.25,148.80 789.75,139.15 C 794.25,129.49 793.78,96.59 799.36,85.05 C 804.93,73.51 825.38,49.04 836.23,42.98 C 847.08,36.92 876.52,35.59 889.77,34.54 C 903.02,33.49 935.14,29.04 946.64,34.24 C 958.15,39.44 979.69,65.82 985.61,77.87 C 991.53,89.93 997.54,121.41 995.94,134.72 C 994.34,148.03 974.25,179.15 972.29,188.80 C 970.33,198.46 975.09,208.08 979.65,215.20 C 984.20,222.33 1008.19,240.21 1010.23,248.20 C 1012.27,256.20 999.82,273.47 996.61,281.84 Z" fill="#161E54" fill-opacity="0.5764565513503008" stroke="none" /><path d="M 905.76,783.47 C 908.92,774.04 919.41,751.74 926.82,745.13 C 934.22,738.52 957.46,730.97 967.47,728.39 C 977.49,725.82 999.50,723.99 1010.27,723.68 C 1021.05,723.37 1047.88,721.33 1057.26,725.81 C 1066.64,730.28 1082.88,751.77 1088.43,760.98 C 1093.99,770.19 1101.37,792.47 1103.56,802.53 C 1105.75,812.59 1108.10,835.09 1106.67,844.85 C 1105.24,854.60 1097.00,875.86 1091.63,883.81 C 1086.26,891.76 1069.93,906.81 1061.90,911.12 C 1053.86,915.43 1033.28,918.61 1024.66,919.76 C 1016.03,920.91 999.16,919.85 990.04,920.70 C 980.93,921.55 958.98,928.07 948.72,926.86 C 938.46,925.65 910.87,918.11 904.52,910.64 C 898.17,903.17 896.28,875.05 895.80,864.62 C 895.31,854.18 899.27,833.41 900.46,823.67 C 901.66,813.93 902.60,792.89 905.76,783.47 Z" fill="#FF986A" fill-opacity="0.4597569761179183" stroke="none" /><path d="M 653.41,758.62 C 658.58,760.29 669.13,766.41 673.26,769.64 C 677.40,772.87 684.92,781.49 687.86,785.56 C 690.80,789.62 696.20,799.01 697.79,803.53 C 699.38,808.05 700.77,818.49 701.12,823.19 C 701.48,827.89 701.05,837.86 700.73,842.71 C 700.41,847.55 700.39,859.14 698.47,863.55 C 696.55,867.95 688.43,876.12 684.70,879.41 C 680.97,882.70 671.92,889.20 667.41,890.97 C 662.90,892.74 652.01,893.56 647.12,894.17 C 642.22,894.79 631.70,896.22 626.63,896.06 C 621.56,895.91 610.03,894.51 604.87,892.91 C 599.70,891.31 588.24,886.08 583.58,882.72 C 578.92,879.36 569.13,869.95 566.02,864.91 C 562.91,859.87 558.66,846.76 557.65,840.75 C 556.64,834.74 555.93,820.53 557.61,814.82 C 559.28,809.11 567.82,797.72 571.60,793.16 C 575.38,788.60 584.72,780.35 589.11,776.82 C 593.49,773.29 603.22,766.28 608.15,763.75 C 613.08,761.22 624.75,756.34 630.18,755.72 C 635.61,755.11 648.24,756.95 653.41,758.62 Z" fill="#FF986A" fill-opacity="0.3739067643036219" stroke="none" /><path d="M 461.32,884.88 C 470.79,896.99 474.81,936.07 477.24,953.41 C 479.66,970.76 486.61,1012.97 481.51,1029.44 C 476.41,1045.92 447.44,1076.64 434.74,1090.70 C 422.03,1104.75 392.42,1140.89 375.62,1146.57 C 358.81,1152.25 311.56,1144.34 294.69,1138.05 C 277.81,1131.77 244.54,1107.13 235.00,1094.18 C 225.45,1081.23 218.25,1043.53 215.16,1030.10 C 212.07,1016.67 214.99,993.96 209.25,982.23 C 203.51,970.50 172.55,946.96 167.31,932.34 C 162.07,917.72 159.27,874.63 165.55,860.42 C 171.83,846.22 204.51,817.20 219.66,813.97 C 234.80,810.73 277.32,829.02 291.77,833.45 C 306.21,837.87 327.22,848.56 340.01,850.85 C 352.79,853.14 383.76,848.44 398.32,852.52 C 412.88,856.61 451.85,872.78 461.32,884.88 Z" fill="#F16D34" fill-opacity="0.28253524503796185" stroke="none" /><path d="M 703.30,164.14 C 705.52,159.74 712.58,150.39 716.60,147.84 C 720.63,145.28 732.25,143.66 736.84,142.89 C 741.44,142.12 750.54,141.74 754.91,141.41 C 759.28,141.07 769.54,138.57 773.24,140.10 C 776.93,141.62 782.35,151.37 785.70,154.13 C 789.05,156.88 798.89,159.91 801.17,163.07 C 803.44,166.23 804.18,176.39 804.66,180.48 C 805.14,184.56 805.37,193.07 805.13,197.11 C 804.90,201.15 804.16,210.31 802.72,214.14 C 801.27,217.97 796.07,226.08 793.12,229.02 C 790.16,231.97 781.96,236.62 778.10,238.68 C 774.24,240.75 765.34,245.42 760.96,246.24 C 756.58,247.06 745.79,246.98 741.62,245.51 C 737.45,244.03 729.77,236.80 726.22,233.93 C 722.68,231.06 714.66,225.16 712.10,221.58 C 709.54,218.00 706.59,208.50 704.92,204.06 C 703.24,199.62 698.32,189.34 698.12,184.55 C 697.93,179.76 701.08,168.55 703.30,164.14 Z" fill="#161E54" fill-opacity="0.41550880069293883" stroke="none" /><path d="M -3.27,195.85 C -5.02,191.23 -7.65,181.40 -8.03,176.95 C -8.42,172.50 -6.89,163.08 -6.49,158.78 C -6.09,154.48 -6.05,145.05 -4.69,141.11 C -3.32,137.17 2.18,129.28 4.88,125.93 C 7.59,122.57 14.55,116.92 17.89,113.15 C 21.23,109.38 28.22,97.08 32.74,94.50 C 37.25,91.92 50.43,90.56 55.53,91.64 C 60.63,92.72 71.14,100.20 75.23,103.48 C 79.32,106.76 86.67,115.05 89.60,118.96 C 92.54,122.87 98.06,131.76 99.68,136.10 C 101.29,140.44 102.12,150.45 103.05,155.14 C 103.98,159.84 107.19,170.10 107.46,175.23 C 107.73,180.35 106.79,192.40 105.29,197.88 C 103.79,203.35 98.75,216.34 94.95,220.81 C 91.16,225.29 79.31,233.22 73.70,235.19 C 68.08,237.15 54.06,237.90 48.20,237.21 C 42.35,236.51 29.90,231.99 24.90,229.38 C 19.90,226.77 9.92,219.46 6.54,215.44 C 3.16,211.41 -1.52,200.47 -3.27,195.85 Z" fill="#161E54" fill-opacity="0.32430121363075887" stroke="none" /><path d="M 778.90,396.11 C 777.38,404.22 775.12,421.27 772.04,428.42 C 768.96,435.57 758.14,449.00 753.20,455.67 C 748.26,462.34 737.65,478.65 730.84,484.00 C 724.03,489.36 705.18,498.79 696.46,500.31 C 687.74,501.83 666.92,499.04 658.17,496.67 C 649.43,494.29 630.77,485.83 623.62,480.52 C 616.47,475.22 602.66,460.08 598.59,452.47 C 594.52,444.86 590.93,425.44 589.71,417.13 C 588.49,408.81 588.27,391.43 588.44,383.18 C 588.61,374.92 589.00,356.58 591.13,348.31 C 593.25,340.03 601.37,322.42 606.14,314.22 C 610.90,306.03 622.97,285.45 630.83,280.00 C 638.70,274.54 661.80,269.37 671.66,268.77 C 681.51,268.17 703.43,272.36 712.97,274.99 C 722.51,277.61 743.34,285.04 751.16,290.61 C 758.99,296.19 774.15,313.02 778.18,321.44 C 782.20,329.86 784.62,351.83 784.71,360.79 C 784.79,369.75 780.42,387.99 778.90,396.11 Z" fill="#F16D34" fill-opacity="0.42496441993380074" stroke="none" /><path d="M 563.51,642.01 C 567.21,638.92 576.10,631.93 580.67,630.52 C 585.25,629.11 597.00,629.07 601.64,630.29 C 606.28,631.50 615.56,637.75 619.31,640.65 C 623.06,643.55 630.31,650.70 632.90,654.45 C 635.50,658.20 639.89,667.52 640.93,671.92 C 641.96,676.33 642.12,686.58 641.56,691.17 C 641.00,695.75 638.55,706.13 636.25,710.12 C 633.95,714.10 626.25,721.80 622.40,724.38 C 618.54,726.96 608.60,730.94 604.12,731.59 C 599.65,732.24 589.58,730.59 585.10,729.78 C 580.62,728.98 571.04,726.79 566.80,724.88 C 562.57,722.97 552.91,717.42 549.82,713.84 C 546.73,710.27 541.84,699.79 541.02,695.10 C 540.21,690.41 541.99,679.45 543.05,674.79 C 544.11,670.13 547.42,660.20 549.87,656.27 C 552.33,652.34 559.81,645.10 563.51,642.01 Z" fill="#F16D34" fill-opacity="0.6071461449327098" stroke="none" /><path d="M 620.08,1207.06 C 616.58,1200.14 610.88,1185.36 608.26,1178.27 C 605.64,1171.18 599.87,1155.77 598.27,1147.97 C 596.66,1140.18 593.58,1121.34 594.89,1113.28 C 596.20,1105.22 603.94,1087.01 609.20,1080.77 C 614.46,1074.53 631.83,1066.20 638.72,1061.28 C 645.61,1056.35 659.06,1042.29 666.64,1039.73 C 674.22,1037.17 693.48,1039.75 701.89,1039.93 C 710.30,1040.10 728.92,1038.93 736.74,1041.19 C 744.57,1043.45 762.51,1052.24 767.09,1058.75 C 771.66,1065.26 772.63,1087.94 774.86,1095.45 C 777.08,1102.96 783.83,1114.96 785.62,1121.34 C 787.41,1127.73 788.85,1141.79 789.77,1148.66 C 790.70,1155.52 793.02,1170.60 793.31,1178.53 C 793.61,1186.46 795.22,1207.25 792.21,1214.74 C 789.21,1222.23 774.91,1235.68 768.27,1240.93 C 761.63,1246.19 744.93,1257.36 736.88,1258.54 C 728.82,1259.73 709.22,1252.36 701.14,1250.79 C 693.06,1249.22 677.21,1247.26 669.56,1245.47 C 661.92,1243.68 643.34,1240.52 637.40,1235.91 C 631.47,1231.30 623.58,1213.98 620.08,1207.06 Z" fill="#F16D34" fill-opacity="0.3932352564935722" stroke="none" /><path d="M 1088.91,882.91 C 1088.08,877.67 1088.83,865.25 1090.20,860.02 C 1091.57,854.78 1096.99,843.50 1100.31,839.28 C 1103.63,835.06 1113.59,828.41 1117.88,824.83 C 1122.16,821.24 1130.98,811.79 1136.02,809.40 C 1141.07,807.01 1154.13,805.02 1159.92,804.94 C 1165.71,804.86 1179.11,806.42 1184.28,808.77 C 1189.45,811.12 1198.87,820.53 1203.01,824.50 C 1207.16,828.48 1215.70,837.21 1218.82,841.89 C 1221.94,846.56 1227.78,858.01 1228.99,863.46 C 1230.19,868.90 1230.64,882.18 1228.86,887.30 C 1227.09,892.41 1217.32,901.75 1214.18,906.07 C 1211.04,910.38 1205.99,919.49 1202.72,923.24 C 1199.44,926.98 1191.30,935.16 1186.90,937.26 C 1182.51,939.36 1171.15,939.87 1166.10,940.73 C 1161.05,941.60 1149.97,944.74 1144.83,944.49 C 1139.69,944.24 1127.92,941.08 1123.26,938.64 C 1118.60,936.19 1109.12,928.31 1105.99,924.12 C 1102.85,919.93 1099.17,908.67 1097.12,903.72 C 1095.07,898.78 1089.74,888.16 1088.91,882.91 Z" fill="#161E54" fill-opacity="0.5774701598697395" stroke="none" /><path d="M 323.53,111.05 C 330.84,107.80 349.31,104.07 357.02,104.85 C 364.74,105.63 381.48,113.70 387.81,117.53 C 394.13,121.36 405.37,131.96 409.74,136.74 C 414.10,141.52 421.00,152.55 424.18,157.37 C 427.37,162.18 434.46,171.84 436.27,176.87 C 438.09,181.91 439.17,193.97 439.30,199.32 C 439.43,204.67 438.33,216.10 437.37,221.43 C 436.40,226.76 433.52,238.48 431.27,243.75 C 429.01,249.02 422.36,260.01 418.58,265.33 C 414.79,270.65 405.46,284.36 399.73,288.06 C 394.01,291.77 378.18,295.13 370.88,296.17 C 363.57,297.20 346.31,298.27 338.87,296.68 C 331.44,295.09 314.03,288.26 308.93,282.90 C 303.82,277.54 299.08,259.01 296.34,252.00 C 293.60,244.99 288.67,231.37 286.09,224.48 C 283.51,217.58 276.38,202.40 274.82,194.52 C 273.27,186.65 270.60,166.39 273.15,158.88 C 275.70,151.37 290.02,137.67 296.07,131.93 C 302.11,126.19 316.21,114.30 323.53,111.05 Z" fill="#161E54" fill-opacity="0.6223760141155008" stroke="none" /><path d="M 1096.58,966.79 C 1100.08,970.09 1106.22,980.22 1106.93,985.15 C 1107.65,990.08 1102.47,1003.29 1102.53,1007.85 C 1102.58,1012.41 1105.79,1019.21 1107.36,1023.15 C 1108.94,1027.08 1113.76,1035.75 1115.64,1040.65 C 1117.53,1045.54 1121.66,1057.34 1123.07,1063.93 C 1124.49,1070.51 1128.82,1088.82 1127.42,1095.50 C 1126.02,1102.18 1116.66,1115.69 1111.43,1119.58 C 1106.20,1123.48 1090.35,1126.33 1083.81,1127.97 C 1077.28,1129.62 1063.28,1133.88 1056.97,1133.28 C 1050.67,1132.69 1037.05,1125.46 1031.30,1123.01 C 1025.56,1120.56 1014.10,1115.67 1009.08,1112.88 C 1004.05,1110.09 992.79,1104.07 989.42,1099.79 C 986.05,1095.50 981.04,1082.90 980.97,1077.14 C 980.90,1071.38 987.95,1056.75 988.83,1051.81 C 989.72,1046.86 989.21,1039.79 988.36,1035.95 C 987.51,1032.10 981.95,1023.66 981.72,1019.77 C 981.49,1015.87 985.18,1007.48 986.44,1003.49 C 987.69,999.50 990.08,990.27 992.17,986.52 C 994.26,982.77 1000.46,974.99 1003.84,972.25 C 1007.21,969.51 1016.28,966.39 1020.29,963.68 C 1024.30,960.98 1032.74,950.97 1037.23,949.73 C 1041.73,948.49 1052.89,952.40 1057.75,953.35 C 1062.62,954.30 1073.09,956.01 1077.75,957.62 C 1082.41,959.24 1093.08,963.49 1096.58,966.79 Z" fill="#FF986A" fill-opacity="0.28646749327723375" stroke="none" /><path d="M 1048.57,953.28 C 1044.76,952.08 1036.71,947.88 1033.68,945.36 C 1030.66,942.85 1025.78,935.63 1023.36,932.29 C 1020.94,928.96 1014.94,921.58 1013.52,917.61 C 1012.09,913.63 1011.14,903.67 1011.46,899.19 C 1011.78,894.71 1014.37,884.80 1016.17,880.27 C 1017.97,875.73 1022.84,864.64 1026.48,861.43 C 1030.13,858.22 1041.64,854.33 1046.55,853.54 C 1051.45,852.75 1062.48,854.16 1067.35,854.88 C 1072.23,855.59 1082.49,857.72 1087.16,859.47 C 1091.83,861.23 1102.73,865.99 1106.26,869.49 C 1109.80,872.99 1114.83,883.80 1116.61,888.64 C 1118.40,893.49 1121.86,905.05 1121.18,909.89 C 1120.49,914.72 1113.76,924.99 1110.94,928.94 C 1108.13,932.90 1101.22,940.19 1097.74,942.85 C 1094.26,945.51 1085.82,949.61 1081.94,951.11 C 1078.06,952.61 1069.41,955.08 1065.40,955.34 C 1061.40,955.61 1052.37,954.48 1048.57,953.28 Z" fill="#161E54" fill-opacity="0.6130496878211695" stroke="none" /><path d="M 649.00,331.64 C 640.29,318.79 638.43,275.13 637.95,260.14 C 637.47,245.15 644.88,219.00 645.01,206.72 C 645.13,194.43 634.23,166.55 638.98,157.75 C 643.74,148.95 674.85,137.96 684.66,133.41 C 694.47,128.87 712.15,124.09 720.76,119.86 C 729.38,115.63 745.57,102.95 756.44,98.13 C 767.32,93.30 801.53,76.11 811.39,79.64 C 821.24,83.18 834.03,116.53 838.58,127.60 C 843.13,138.66 846.44,161.37 849.33,171.86 C 852.22,182.35 862.30,204.22 862.69,215.03 C 863.07,225.85 858.11,252.53 852.54,262.00 C 846.97,271.47 825.03,283.10 816.25,293.93 C 807.47,304.75 792.08,343.43 779.39,352.22 C 766.71,361.02 726.20,369.69 710.56,367.22 C 694.91,364.75 657.72,344.49 649.00,331.64 Z" fill="#161E54" fill-opacity="0.6293402458677448" stroke="none" /><path d="M 1070.13,278.57 C 1068.92,273.63 1067.67,260.17 1069.70,255.69 C 1071.73,251.21 1082.41,243.41 1087.02,241.24 C 1091.64,239.06 1103.40,238.11 1108.12,237.55 C 1112.85,237.00 1121.89,237.03 1126.39,236.61 C 1130.88,236.20 1141.79,232.54 1145.56,234.09 C 1149.34,235.64 1155.09,246.13 1157.83,249.53 C 1160.58,252.94 1166.19,259.13 1168.42,262.49 C 1170.65,265.86 1174.68,273.58 1176.42,277.58 C 1178.16,281.58 1182.14,291.00 1182.93,295.82 C 1183.72,300.63 1184.20,312.51 1183.01,317.70 C 1181.82,322.89 1176.80,335.39 1173.01,339.08 C 1169.21,342.77 1156.69,348.75 1151.37,348.42 C 1146.05,348.08 1133.27,338.45 1128.67,336.28 C 1124.06,334.11 1116.60,331.88 1113.01,330.32 C 1109.42,328.77 1101.94,325.46 1098.76,323.30 C 1095.57,321.14 1088.78,315.48 1086.50,312.31 C 1084.23,309.14 1081.79,300.94 1079.83,296.89 C 1077.86,292.84 1071.35,283.52 1070.13,278.57 Z" fill="#F16D34" fill-opacity="0.34163730222142025" stroke="none" /><path d="M 1155.09,481.01 C 1159.58,483.33 1167.55,488.12 1171.81,490.24 C 1176.08,492.36 1187.13,495.50 1190.61,498.69 C 1194.10,501.88 1199.81,512.19 1200.84,516.83 C 1201.87,521.47 1199.15,532.36 1199.18,537.37 C 1199.22,542.38 1202.51,554.11 1201.11,558.61 C 1199.71,563.10 1191.29,571.80 1187.51,574.84 C 1183.72,577.88 1173.87,582.01 1169.56,583.95 C 1165.25,585.88 1156.19,589.79 1151.62,590.97 C 1147.05,592.15 1136.18,594.41 1131.49,593.79 C 1126.80,593.16 1116.13,588.77 1112.54,585.76 C 1108.95,582.75 1104.53,572.52 1101.58,568.70 C 1098.62,564.88 1090.56,558.13 1087.90,553.92 C 1085.24,549.70 1079.58,538.50 1079.43,533.56 C 1079.29,528.63 1084.79,517.76 1086.66,512.78 C 1088.54,507.81 1092.13,496.67 1095.06,492.12 C 1098.00,487.57 1106.42,477.44 1111.14,474.89 C 1115.85,472.34 1129.09,470.15 1134.36,470.89 C 1139.63,471.62 1150.59,478.69 1155.09,481.01 Z" fill="#F16D34" fill-opacity="0.46400877704190957" stroke="none" /><path d="M 49.27,262.76 C 52.95,253.69 72.83,237.08 81.16,231.74 C 89.49,226.40 109.91,219.60 118.67,218.24 C 127.43,216.88 145.95,219.55 154.19,220.37 C 162.42,221.19 180.21,221.94 187.30,225.08 C 194.39,228.22 206.43,240.99 213.27,246.54 C 220.12,252.09 237.96,263.29 244.33,271.32 C 250.70,279.36 265.36,302.89 266.35,313.51 C 267.34,324.13 258.29,350.09 252.58,359.83 C 246.86,369.57 228.19,388.53 218.72,394.72 C 209.24,400.90 184.85,409.00 173.61,411.34 C 162.38,413.68 135.51,417.39 125.11,414.21 C 114.70,411.02 94.75,392.57 86.91,384.81 C 79.07,377.05 64.16,358.87 59.79,349.57 C 55.41,340.26 51.75,317.67 50.48,307.25 C 49.22,296.83 45.59,271.82 49.27,262.76 Z" fill="#F16D34" fill-opacity="0.32913568372233637" stroke="none" /><path d="M 907.51,603.82 C 915.39,608.51 929.60,623.25 936.17,629.28 C 942.74,635.32 956.38,647.69 962.25,654.12 C 968.12,660.56 979.85,675.39 985.11,682.89 C 990.36,690.39 1001.33,707.61 1006.06,716.62 C 1010.78,725.63 1024.05,748.04 1024.50,757.96 C 1024.94,767.87 1013.71,789.56 1009.78,799.23 C 1005.84,808.90 998.36,831.13 991.69,838.52 C 985.02,845.91 962.05,854.00 954.17,860.82 C 946.29,867.63 934.65,890.86 926.00,895.30 C 917.36,899.74 892.29,898.12 882.15,897.82 C 872.01,897.53 850.71,895.27 841.49,892.83 C 832.27,890.40 813.09,882.26 805.28,877.54 C 797.47,872.81 783.32,859.01 776.39,853.45 C 769.46,847.90 756.02,836.43 747.51,831.27 C 738.99,826.11 713.27,817.70 705.44,810.46 C 697.61,803.22 685.31,781.18 682.28,770.92 C 679.26,760.65 677.77,735.29 680.22,724.93 C 682.68,714.57 697.97,694.16 702.76,684.56 C 707.56,674.97 714.69,653.76 720.18,645.00 C 725.67,636.23 740.32,617.66 748.51,611.51 C 756.70,605.35 778.93,598.30 788.43,593.71 C 797.94,589.11 817.86,573.66 827.71,573.23 C 837.56,572.81 860.95,586.50 870.53,590.17 C 880.10,593.84 899.63,599.12 907.51,603.82 Z" fill="#F16D34" fill-opacity="0.39038722794053204" stroke="none" /><path d="M 1004.02,-112.87 C 1022.89,-118.13 1074.95,-94.89 1095.55,-91.99 C 1116.15,-89.09 1161.16,-97.53 1175.65,-88.74 C 1190.15,-79.95 1206.61,-34.31 1216.34,-18.75 C 1226.08,-3.19 1253.56,25.28 1256.77,40.92 C 1259.98,56.55 1247.24,94.92 1243.10,111.52 C 1238.97,128.12 1233.89,170.41 1222.33,179.24 C 1210.77,188.07 1162.08,180.16 1146.79,185.10 C 1131.50,190.04 1106.29,222.63 1094.93,220.39 C 1083.57,218.15 1061.03,176.52 1052.13,166.47 C 1043.22,156.42 1032.66,143.44 1020.70,136.63 C 1008.75,129.82 966.66,122.16 952.47,109.74 C 938.28,97.31 904.15,52.00 902.46,33.05 C 900.76,14.11 926.17,-30.63 938.36,-48.14 C 950.55,-65.65 985.16,-107.61 1004.02,-112.87 Z" fill="#F16D34" fill-opacity="0.3203950353261082" stroke="none" /><path d="M 272.02,443.71 C 262.17,454.37 267.32,493.80 259.80,504.72 C 252.28,515.63 222.50,528.88 209.38,534.69 C 196.25,540.50 163.32,556.47 150.42,553.11 C 137.52,549.76 110.54,518.25 101.88,506.73 C 93.21,495.20 85.82,465.68 78.20,457.07 C 70.58,448.46 47.87,442.07 38.38,434.95 C 28.89,427.84 6.42,408.85 -0.88,397.79 C -8.17,386.74 -23.59,355.40 -22.41,342.85 C -21.23,330.30 1.24,304.16 8.96,293.19 C 16.67,282.23 32.44,259.39 41.88,251.47 C 51.33,243.55 76.18,230.03 87.66,227.20 C 99.15,224.37 126.28,227.26 137.57,227.90 C 148.86,228.54 171.82,229.67 181.77,232.54 C 191.72,235.41 208.91,248.88 220.49,251.80 C 232.07,254.73 260.74,253.79 278.24,256.94 C 295.73,260.09 354.74,266.70 366.28,278.03 C 377.82,289.36 377.33,334.79 374.40,351.33 C 371.47,367.87 354.16,404.81 341.87,415.89 C 329.59,426.98 281.87,433.05 272.02,443.71 Z" fill="#FF986A" fill-opacity="0.5888201194276942" stroke="none" /><path d="M 345.22,925.83 C 364.36,932.01 423.78,928.47 440.64,940.30 C 457.49,952.13 485.81,1004.10 485.69,1024.42 C 485.57,1044.73 449.49,1090.83 439.65,1109.59 C 429.81,1128.35 415.02,1164.43 403.69,1180.78 C 392.37,1197.13 362.79,1238.26 345.27,1245.85 C 327.76,1253.45 276.05,1250.14 257.75,1244.09 C 239.45,1238.03 208.17,1205.92 192.76,1195.43 C 177.35,1184.93 138.31,1170.10 129.33,1156.63 C 120.36,1143.16 113.36,1098.59 117.96,1083.20 C 122.56,1067.80 160.66,1041.49 167.68,1028.34 C 174.69,1015.19 171.44,988.10 176.40,973.62 C 181.36,959.13 196.46,917.79 209.04,907.62 C 221.61,897.44 264.85,886.66 281.19,888.85 C 297.53,891.03 326.09,919.66 345.22,925.83 Z" fill="#161E54" fill-opacity="0.5736811039322464" stroke="none" /><path d="M 310.81,331.07 C 331.15,329.00 381.57,336.63 397.86,347.30 C 414.14,357.97 442.75,401.34 446.54,420.00 C 450.34,438.66 430.44,487.87 429.48,502.80 C 428.51,517.73 431.89,531.65 438.48,544.44 C 445.08,557.24 482.30,593.71 484.43,609.44 C 486.56,625.18 467.39,663.70 456.23,675.58 C 445.08,687.45 407.87,702.12 391.46,708.43 C 375.06,714.74 337.75,726.92 319.50,728.17 C 301.24,729.42 255.81,726.94 239.34,718.86 C 222.87,710.77 198.09,675.35 182.24,660.80 C 166.40,646.25 112.25,616.07 107.32,597.61 C 102.38,579.15 134.19,527.73 141.13,507.00 C 148.06,486.27 154.63,441.96 165.10,424.86 C 175.57,407.76 210.89,375.77 228.37,364.52 C 245.86,353.26 290.47,333.13 310.81,331.07 Z" fill="#161E54" fill-opacity="0.3211965837912661" stroke="none" /><path d="M 107.62,727.51 C 96.70,726.76 70.10,719.01 61.85,712.11 C 53.60,705.21 42.64,680.18 38.85,670.02 C 35.07,659.87 30.29,637.41 30.31,627.47 C 30.34,617.53 35.25,595.83 39.05,587.17 C 42.85,578.50 55.36,561.41 61.97,555.22 C 68.59,549.03 85.97,540.40 94.15,535.59 C 102.32,530.79 120.58,517.20 130.10,515.18 C 139.62,513.16 164.27,514.94 173.49,518.76 C 182.71,522.57 201.60,538.72 206.91,546.98 C 212.22,555.24 214.92,578.06 217.74,587.58 C 220.56,597.11 230.23,616.83 230.40,626.35 C 230.58,635.87 224.05,658.41 219.20,666.91 C 214.35,675.42 197.94,691.02 189.98,697.19 C 182.02,703.37 162.75,714.74 152.87,718.38 C 142.98,722.02 118.54,728.26 107.62,727.51 Z" fill="#FF986A" fill-opacity="0.5631736834897295" stroke="none" /><path d="M 440.63,1056.60 C 444.03,1057.02 451.27,1058.85 454.45,1060.04 C 457.63,1061.24 464.37,1064.59 467.14,1066.56 C 469.92,1068.53 475.41,1073.79 477.59,1076.47 C 479.77,1079.15 483.99,1085.68 485.28,1088.89 C 486.58,1092.11 488.19,1099.81 488.40,1103.29 C 488.61,1106.78 488.01,1114.65 487.01,1117.93 C 486.01,1121.22 482.24,1128.12 480.08,1130.70 C 477.93,1133.27 471.71,1137.58 469.04,1139.40 C 466.36,1141.22 460.56,1144.53 457.79,1145.85 C 455.01,1147.17 448.85,1150.03 445.93,1150.40 C 443.00,1150.76 436.23,1149.64 433.41,1148.90 C 430.59,1148.16 425.14,1145.19 422.40,1144.25 C 419.67,1143.30 413.33,1142.26 410.63,1141.00 C 407.94,1139.75 402.15,1135.96 399.94,1133.79 C 397.73,1131.62 393.79,1125.78 392.20,1122.91 C 390.60,1120.04 387.51,1113.22 386.68,1109.88 C 385.86,1106.55 384.81,1098.53 385.34,1095.11 C 385.87,1091.68 389.40,1084.48 391.09,1081.33 C 392.77,1078.17 396.86,1071.25 399.40,1068.82 C 401.94,1066.39 409.03,1062.57 412.24,1061.10 C 415.45,1059.63 422.76,1057.10 426.17,1056.56 C 429.58,1056.02 437.24,1056.18 440.63,1056.60 Z" fill="#FF986A" fill-opacity="0.40433154346902855" stroke="none" /><path d="M 246.06,958.74 C 234.36,961.92 207.20,960.36 197.12,961.04 C 187.04,961.71 170.09,963.67 162.08,964.33 C 154.06,964.99 136.75,970.36 130.32,966.53 C 123.89,962.70 115.06,935.54 108.49,932.40 C 101.92,929.26 84.15,940.09 75.56,940.37 C 66.96,940.65 44.33,938.79 36.87,934.73 C 29.41,930.67 20.11,913.90 13.37,906.53 C 6.63,899.17 -15.76,882.57 -19.29,873.39 C -22.82,864.20 -19.26,839.55 -16.04,830.03 C -12.82,820.51 4.68,804.75 7.56,794.06 C 10.44,783.37 3.77,751.61 7.93,740.95 C 12.10,730.29 33.16,713.97 42.24,705.21 C 51.33,696.44 72.07,672.95 83.61,667.92 C 95.16,662.88 125.95,660.96 138.46,663.22 C 150.96,665.48 174.44,684.25 187.83,686.76 C 201.23,689.28 237.98,679.22 250.07,684.18 C 262.17,689.15 284.64,715.23 288.60,728.16 C 292.56,741.10 285.94,778.55 283.08,792.00 C 280.21,805.46 265.02,829.64 264.71,840.30 C 264.41,850.96 276.96,869.52 280.55,880.83 C 284.13,892.14 298.72,925.21 294.58,934.56 C 290.44,943.91 257.75,955.56 246.06,958.74 Z" fill="#161E54" fill-opacity="0.6424027266194914" stroke="none" /><path d="M 857.23,792.64 C 855.28,795.50 850.92,800.83 848.77,803.21 C 846.61,805.59 841.89,810.68 839.29,812.50 C 836.68,814.32 830.14,817.67 827.03,818.39 C 823.92,819.10 816.53,819.03 813.37,818.48 C 810.22,817.94 803.91,814.98 800.76,813.85 C 797.60,812.72 790.45,810.69 787.08,809.04 C 783.72,807.38 775.42,803.01 772.71,800.06 C 770.00,797.11 765.68,788.53 764.50,784.45 C 763.31,780.38 761.79,770.14 762.84,766.11 C 763.88,762.08 770.47,754.06 773.24,750.87 C 776.02,747.68 782.68,741.78 785.96,739.54 C 789.23,737.30 796.87,733.54 800.50,732.18 C 804.13,730.82 812.29,728.71 816.19,728.22 C 820.08,727.72 829.16,727.14 832.96,728.07 C 836.77,729.01 844.49,733.75 847.91,735.98 C 851.32,738.22 859.09,743.47 861.39,746.70 C 863.69,749.94 866.65,759.03 867.08,762.95 C 867.52,766.87 866.20,775.84 865.01,779.40 C 863.83,782.96 859.17,789.79 857.23,792.64 Z" fill="#FF986A" fill-opacity="0.37491975630410274" stroke="none" /></svg>