<?xml version="1.0" encoding="utf-8" ?>
<svg baseProfile="full" height="1200" version="1.1" width="1200" xmlns="http://www.w3.org/2000/svg" xmlns:ev="http://www.w3.org/2001/xml-events" xmlns:xlink="http://www.w3.org/1999/xlink"><defs /><rect fill="#F5FBE6" height="100%" width="100%" x="0" y="0" /><path d="M 118.15,1172.75 C 112.70,1170.38 101.62,1163.27 97.42,1159.34 C 93.21,1155.42 85.20,1145.12 83.09,1140.03 C 80.99,1134.95 79.95,1122.28 79.86,1116.97 C 79.77,1111.65 80.55,1100.23 82.34,1095.71 C 84.14,1091.19 91.63,1082.67 94.81,1079.32 C 97.98,1075.98 105.46,1070.49 108.81,1067.86 C 112.16,1065.24 119.00,1059.09 122.74,1057.42 C 126.49,1055.75 135.84,1054.09 140.03,1053.93 C 144.21,1053.78 153.59,1054.88 157.63,1056.10 C 161.67,1057.33 170.08,1061.70 173.68,1064.14 C 177.28,1066.58 184.64,1072.97 187.65,1076.46 C 190.65,1079.94 196.26,1088.58 198.75,1093.20 C 201.24,1097.83 207.93,1109.58 208.38,1114.99 C 208.82,1120.39 204.68,1132.84 202.44,1138.25 C 200.21,1143.65 193.73,1155.33 189.76,1160.01 C 185.80,1164.68 175.07,1174.89 169.44,1177.18 C 163.81,1179.48 149.03,1179.68 142.87,1179.14 C 136.72,1178.61 123.61,1175.13 118.15,1172.75 Z" fill="#215E61" fill-opacity="0.5564406721889574" stroke="none" /><path d="M 346.37,922.79 C 339.45,920.20 330.76,905.77 325.80,899.67 C 320.84,893.58 311.29,879.71 305.07,872.01 C 298.84,864.31 276.27,844.67 273.93,835.50 C 271.59,826.32 282.45,805.11 285.56,795.56 C 288.67,786.01 297.11,767.28 299.84,755.90 C 302.56,744.53 303.03,712.49 308.28,700.75 C 313.54,689.02 332.75,663.42 343.60,658.10 C 354.45,652.78 386.30,653.18 398.72,656.41 C 411.14,659.63 437.71,676.44 447.10,684.99 C 456.49,693.53 470.43,719.75 476.97,727.59 C 483.52,735.43 495.23,745.67 501.65,750.32 C 508.08,754.97 521.46,762.70 530.50,766.33 C 539.54,769.97 564.72,775.14 577.01,780.63 C 589.31,786.12 626.43,802.03 632.94,812.10 C 639.45,822.17 633.36,852.38 631.26,864.53 C 629.16,876.67 622.29,903.62 615.40,913.30 C 608.51,922.99 584.03,939.36 573.85,945.25 C 563.67,951.13 539.82,958.01 530.57,962.35 C 521.33,966.69 505.06,976.69 496.80,981.40 C 488.55,986.11 470.65,1001.65 461.80,1001.60 C 452.95,1001.55 430.36,988.29 423.05,980.98 C 415.75,973.68 405.63,947.91 400.89,940.75 C 396.14,933.59 390.05,923.45 383.51,921.30 C 376.97,919.14 353.30,925.39 346.37,922.79 Z" fill="#233D4D" fill-opacity="0.48001504654121174" stroke="none" /><path d="M 491.82,902.65 C 487.36,904.09 475.80,913.16 471.03,913.45 C 466.27,913.74 456.74,907.37 452.11,905.07 C 447.48,902.78 435.65,898.16 432.46,894.33 C 429.27,890.50 428.07,878.04 425.53,873.14 C 422.99,868.24 412.98,858.73 411.29,853.50 C 409.60,848.27 410.23,835.05 411.43,829.57 C 412.62,824.09 418.30,812.61 421.25,807.85 C 424.21,803.10 431.76,793.17 436.08,789.98 C 440.39,786.79 451.99,781.85 457.22,781.25 C 462.45,780.65 474.80,785.66 479.64,784.99 C 484.49,784.32 493.16,776.18 497.61,775.67 C 502.05,775.15 512.03,779.41 516.67,780.69 C 521.31,781.98 530.46,785.32 536.25,786.40 C 542.04,787.49 557.68,787.58 564.92,789.72 C 572.16,791.86 591.26,798.92 596.56,804.26 C 601.86,809.59 609.21,826.94 609.12,834.20 C 609.02,841.45 598.76,857.84 595.74,864.70 C 592.72,871.55 588.25,886.16 583.94,891.30 C 579.64,896.44 566.00,905.07 559.88,907.54 C 553.77,910.00 539.18,912.56 532.98,911.84 C 526.77,911.11 513.10,902.58 508.16,901.48 C 503.22,900.37 496.27,901.21 491.82,902.65 Z" fill="#FE7F2D" fill-opacity="0.2950098894091837" stroke="none" /><path d="M 1118.12,669.63 C 1114.25,669.78 1105.76,667.80 1101.99,666.91 C 1098.22,666.03 1090.09,663.94 1086.69,662.24 C 1083.30,660.55 1076.18,655.58 1073.72,652.76 C 1071.25,649.94 1067.49,642.21 1066.19,638.75 C 1064.89,635.29 1062.83,627.41 1062.85,623.90 C 1062.88,620.39 1065.19,612.66 1066.43,609.53 C 1067.67,606.39 1071.40,600.33 1073.20,597.81 C 1075.01,595.29 1079.26,590.42 1081.44,588.56 C 1083.63,586.71 1088.94,583.47 1091.44,582.35 C 1093.93,581.23 1099.62,579.62 1102.21,579.22 C 1104.79,578.81 1110.40,578.91 1113.00,578.97 C 1115.60,579.03 1121.21,579.21 1123.85,579.69 C 1126.48,580.16 1132.24,581.84 1134.94,582.93 C 1137.65,584.03 1144.22,586.77 1146.41,588.80 C 1148.60,590.84 1151.81,597.04 1153.17,599.90 C 1154.53,602.77 1157.10,609.44 1157.73,612.67 C 1158.37,615.91 1158.80,623.45 1158.44,626.89 C 1158.08,630.33 1156.03,637.88 1154.72,641.35 C 1153.41,644.82 1149.95,652.90 1147.49,655.81 C 1145.03,658.73 1137.75,663.99 1134.23,665.65 C 1130.71,667.31 1121.99,669.48 1118.12,669.63 Z" fill="#215E61" fill-opacity="0.29941992670371814" stroke="none" /><path d="M 569.39,936.07 C 565.47,931.48 560.72,917.73 559.53,912.34 C 558.35,906.94 560.27,895.65 559.52,891.12 C 558.77,886.58 553.86,878.79 553.27,874.55 C 552.67,870.32 553.59,860.40 554.59,855.82 C 555.58,851.23 559.37,841.65 561.59,836.32 C 563.81,830.98 568.70,816.16 573.10,811.35 C 577.49,806.55 591.25,798.82 598.19,796.25 C 605.13,793.68 623.15,789.11 630.92,789.91 C 638.69,790.71 656.34,798.17 662.95,802.92 C 669.57,807.68 683.24,822.12 686.07,829.51 C 688.90,836.91 686.76,856.63 686.50,864.56 C 686.25,872.48 686.07,888.65 683.96,895.54 C 681.86,902.43 673.36,916.43 668.96,922.00 C 664.56,927.56 653.33,939.09 647.30,941.94 C 641.27,944.80 625.36,944.75 618.74,945.78 C 612.13,946.81 598.10,951.72 592.17,950.56 C 586.25,949.39 573.31,940.66 569.39,936.07 Z" fill="#233D4D" fill-opacity="0.3429335314266054" stroke="none" /><path d="M 53.61,1036.65 C 48.27,1037.58 35.97,1034.96 30.12,1034.13 C 24.27,1033.30 10.29,1032.32 4.86,1029.76 C -0.57,1027.21 -11.75,1017.84 -15.12,1012.84 C -18.50,1007.84 -22.41,994.02 -23.26,988.08 C -24.12,982.15 -23.48,968.90 -22.25,963.37 C -21.03,957.84 -15.15,947.09 -13.06,941.99 C -10.97,936.88 -7.95,925.11 -4.84,920.84 C -1.72,916.57 8.38,909.67 12.92,906.42 C 17.46,903.17 27.72,895.34 32.99,893.77 C 38.27,892.19 51.28,892.63 56.91,893.30 C 62.54,893.97 74.82,896.98 79.92,899.35 C 85.01,901.72 93.99,909.82 99.36,913.07 C 104.73,916.32 120.45,921.65 124.69,926.41 C 128.93,931.17 133.93,946.25 134.71,952.75 C 135.48,959.25 132.63,974.11 131.16,980.59 C 129.70,987.08 126.61,1002.18 122.50,1006.80 C 118.38,1011.41 102.60,1016.72 96.85,1019.07 C 91.10,1021.42 79.76,1024.24 74.57,1026.35 C 69.38,1028.46 58.94,1035.71 53.61,1036.65 Z" fill="#233D4D" fill-opacity="0.5090568905706604" stroke="none" /><path d="M 163.62,140.07 C 171.02,133.07 190.98,118.88 200.55,116.77 C 210.13,114.66 234.01,119.93 243.42,122.51 C 252.83,125.08 272.25,132.68 279.01,138.22 C 285.77,143.76 295.90,161.41 299.76,168.68 C 303.63,175.95 310.27,191.59 311.18,198.81 C 312.09,206.03 307.98,221.68 307.35,228.86 C 306.72,236.04 308.48,252.40 305.90,258.66 C 303.32,264.92 291.03,275.72 285.83,281.04 C 280.63,286.35 269.27,299.30 262.57,302.95 C 255.86,306.60 237.84,311.52 229.95,311.46 C 222.06,311.41 203.49,306.59 196.82,302.50 C 190.16,298.40 179.74,283.46 174.39,277.37 C 169.05,271.28 156.94,259.02 152.30,251.73 C 147.66,244.45 137.33,225.82 135.73,216.63 C 134.12,207.43 135.59,184.32 138.94,175.13 C 142.28,165.94 156.23,147.07 163.62,140.07 Z" fill="#233D4D" fill-opacity="0.3574628547701497" stroke="none" /><path d="M 852.90,927.89 C 852.37,916.37 854.16,895.82 853.53,887.05 C 852.91,878.29 846.65,862.33 847.70,854.87 C 848.76,847.41 861.32,832.69 862.32,824.88 C 863.33,817.08 856.98,799.55 856.07,789.83 C 855.17,780.11 853.53,756.27 854.79,743.86 C 856.04,731.45 860.57,699.26 866.53,686.45 C 872.49,673.64 892.85,640.27 904.47,637.08 C 916.08,633.89 950.04,657.26 963.33,659.86 C 976.61,662.46 1002.01,658.41 1015.16,658.74 C 1028.31,659.07 1061.52,656.99 1072.94,662.61 C 1084.36,668.24 1103.77,694.20 1110.32,705.60 C 1116.88,717.00 1125.81,745.23 1127.56,757.62 C 1129.32,770.01 1126.67,797.50 1124.94,808.84 C 1123.21,820.18 1112.37,841.16 1113.16,852.11 C 1113.95,863.05 1130.72,888.44 1131.51,900.05 C 1132.31,911.66 1128.31,942.13 1119.77,948.84 C 1111.23,955.55 1072.58,954.87 1060.38,955.95 C 1048.18,957.03 1026.91,955.53 1018.08,957.83 C 1009.25,960.12 994.95,972.32 986.81,975.07 C 978.67,977.82 959.59,979.74 950.26,980.75 C 940.94,981.77 920.18,983.24 909.10,983.51 C 898.02,983.78 864.68,989.71 857.93,983.03 C 851.19,976.36 853.42,939.41 852.90,927.89 Z" fill="#FE7F2D" fill-opacity="0.554224242937392" stroke="none" /><path d="M 819.53,171.64 C 815.64,174.68 805.10,179.06 800.46,180.18 C 795.83,181.29 785.19,182.03 780.92,180.93 C 776.65,179.83 768.23,173.38 764.89,171.03 C 761.56,168.69 755.64,163.84 753.16,161.41 C 750.69,158.97 746.12,153.47 744.27,150.73 C 742.41,147.99 739.04,141.75 737.68,138.59 C 736.32,135.43 733.40,128.02 732.92,124.38 C 732.43,120.73 732.54,111.87 733.63,108.18 C 734.72,104.49 739.43,96.77 741.99,93.62 C 744.56,90.47 751.43,84.11 755.03,81.95 C 758.64,79.79 767.85,75.99 772.04,75.60 C 776.23,75.21 785.97,77.26 789.95,78.69 C 793.93,80.13 801.97,84.99 805.21,87.57 C 808.44,90.15 814.31,96.92 816.90,100.21 C 819.50,103.50 824.94,111.01 826.85,115.00 C 828.75,118.98 832.01,128.64 832.74,133.42 C 833.46,138.20 834.46,150.25 832.88,154.84 C 831.29,159.42 823.41,168.60 819.53,171.64 Z" fill="#233D4D" fill-opacity="0.39622346423449256" stroke="none" /><path d="M 652.94,1000.70 C 646.19,994.66 639.84,975.50 632.56,967.46 C 625.29,959.43 597.82,944.25 592.34,933.76 C 586.86,923.26 584.99,892.99 586.90,880.01 C 588.81,867.03 600.26,837.43 608.23,825.60 C 616.21,813.77 640.34,787.59 653.36,781.44 C 666.38,775.29 703.12,770.73 716.75,774.34 C 730.38,777.96 758.03,801.44 766.94,811.54 C 775.85,821.63 786.86,847.94 791.00,858.48 C 795.15,869.01 798.65,889.61 801.47,899.33 C 804.28,909.05 811.58,927.88 814.48,939.50 C 817.37,951.11 829.02,984.68 825.60,996.14 C 822.19,1007.60 797.19,1029.57 786.01,1034.99 C 774.82,1040.42 744.04,1043.41 732.38,1041.34 C 720.71,1039.28 698.32,1022.66 688.79,1017.78 C 679.26,1012.90 659.68,1006.73 652.94,1000.70 Z" fill="#233D4D" fill-opacity="0.37700315306339305" stroke="none" /><path d="M 466.37,521.15 C 462.43,527.72 449.39,539.42 444.00,544.57 C 438.61,549.72 427.50,560.70 421.44,564.07 C 415.39,567.43 400.25,572.19 393.54,572.63 C 386.83,573.06 371.79,568.30 365.52,567.69 C 359.25,567.08 346.57,569.24 341.25,567.53 C 335.94,565.83 325.22,557.32 321.21,553.45 C 317.20,549.58 310.17,539.80 307.81,535.26 C 305.46,530.72 303.70,519.74 301.59,515.63 C 299.49,511.53 291.26,505.06 290.25,501.08 C 289.25,497.10 293.51,486.93 293.20,482.50 C 292.89,478.06 288.94,469.22 287.66,464.14 C 286.38,459.07 282.56,446.23 282.53,440.22 C 282.51,434.21 284.80,419.72 287.45,414.08 C 290.10,408.44 299.61,397.23 304.62,393.25 C 309.63,389.27 322.96,382.46 329.21,380.94 C 335.45,379.41 350.76,378.16 356.66,380.54 C 362.57,382.92 373.63,396.87 378.44,400.79 C 383.25,404.72 392.83,409.87 396.76,413.22 C 400.68,416.56 405.97,425.79 411.15,428.67 C 416.32,431.54 433.44,433.62 439.89,437.20 C 446.33,440.78 460.40,452.19 464.84,458.51 C 469.28,464.82 476.68,482.31 476.86,489.83 C 477.05,497.35 470.32,514.59 466.37,521.15 Z" fill="#215E61" fill-opacity="0.5151701181561716" stroke="none" /><path d="M 85.68,662.90 C 86.81,646.61 117.37,615.28 130.04,603.75 C 142.72,592.22 176.11,573.37 191.31,566.81 C 206.52,560.26 241.45,546.43 256.76,549.11 C 272.07,551.79 304.29,585.77 318.93,589.14 C 333.57,592.51 363.85,576.87 378.78,577.21 C 393.70,577.55 434.39,581.70 443.33,591.95 C 452.28,602.20 455.83,646.63 453.32,662.60 C 450.80,678.57 426.44,713.13 422.37,725.02 C 418.30,736.91 419.21,752.53 419.41,761.69 C 419.61,770.84 425.87,792.40 424.06,801.31 C 422.24,810.21 408.90,826.35 404.29,835.89 C 399.69,845.44 393.42,874.55 385.68,880.87 C 377.95,887.20 350.43,889.09 339.86,888.62 C 329.28,888.14 306.83,880.20 297.56,876.90 C 288.30,873.60 272.72,862.74 262.65,861.11 C 252.58,859.48 222.33,867.59 213.64,863.30 C 204.95,859.02 195.19,834.67 190.24,825.42 C 185.29,816.17 180.76,796.51 172.41,786.20 C 164.06,775.89 131.05,754.30 120.64,739.50 C 110.24,724.70 84.56,679.19 85.68,662.90 Z" fill="#233D4D" fill-opacity="0.540815681969489" stroke="none" /><path d="M 598.06,48.58 C 596.89,35.05 608.69,2.82 615.90,-9.50 C 623.10,-21.82 646.27,-46.02 658.08,-54.06 C 669.90,-62.10 700.44,-72.93 714.35,-76.50 C 728.25,-80.06 760.38,-86.00 773.95,-83.77 C 787.52,-81.53 815.67,-65.20 827.43,-57.89 C 839.19,-50.58 863.63,-33.05 871.95,-22.83 C 880.27,-12.62 892.90,14.74 896.76,27.22 C 900.61,39.69 902.60,67.56 904.07,81.11 C 905.54,94.66 910.51,125.34 909.01,140.12 C 907.50,154.91 900.77,193.20 891.52,204.34 C 882.27,215.48 846.63,231.53 831.90,232.95 C 817.17,234.36 781.96,220.01 768.75,216.14 C 755.53,212.27 731.99,205.57 721.77,200.71 C 711.56,195.85 691.36,182.86 683.63,175.64 C 675.90,168.41 664.34,149.17 657.39,140.48 C 650.43,131.79 632.79,114.25 625.67,103.22 C 618.55,92.19 599.23,62.11 598.06,48.58 Z" fill="#233D4D" fill-opacity="0.401160605948106" stroke="none" /><path d="M 1105.10,634.50 C 1092.89,635.67 1064.41,634.23 1052.51,630.56 C 1040.61,626.89 1013.84,613.07 1005.94,603.92 C 998.04,594.77 990.97,565.76 986.68,554.30 C 982.38,542.85 971.33,519.76 970.15,508.48 C 968.98,497.20 974.31,471.79 976.88,460.27 C 979.45,448.75 986.82,424.71 991.56,412.49 C 996.29,400.27 1006.26,365.15 1016.32,358.47 C 1026.38,351.80 1062.21,356.59 1075.38,356.87 C 1088.55,357.16 1114.86,357.50 1126.06,360.85 C 1137.27,364.19 1159.02,378.43 1168.76,384.72 C 1178.51,391.00 1202.07,403.99 1207.27,413.21 C 1212.46,422.43 1210.43,450.71 1212.08,461.54 C 1213.73,472.38 1221.43,493.47 1221.02,503.47 C 1220.62,513.48 1213.02,535.60 1208.68,544.95 C 1204.34,554.30 1191.39,572.30 1184.86,581.40 C 1178.32,590.50 1163.79,614.44 1154.22,620.82 C 1144.65,627.19 1117.30,633.34 1105.10,634.50 Z" fill="#FE7F2D" fill-opacity="0.6276163022805052" stroke="none" /><path d="M 795.10,812.05 C 795.47,822.50 790.70,846.06 787.42,856.33 C 784.13,866.60 773.99,888.69 767.74,897.65 C 761.49,906.60 744.43,925.04 735.33,930.92 C 726.23,936.79 702.42,942.59 691.88,946.61 C 681.33,950.64 658.21,964.12 647.44,964.46 C 636.67,964.79 611.46,955.09 602.09,949.39 C 592.72,943.70 573.50,927.00 569.39,916.98 C 565.28,906.96 568.53,875.66 567.84,865.90 C 567.14,856.14 563.63,842.48 563.60,835.66 C 563.56,828.85 567.22,815.16 567.57,809.11 C 567.92,803.05 567.16,791.66 566.52,785.21 C 565.89,778.77 561.56,762.59 562.31,755.41 C 563.05,748.22 568.99,732.41 572.72,725.35 C 576.46,718.30 586.85,700.87 593.44,696.65 C 600.03,692.44 619.56,690.34 627.63,690.22 C 635.71,690.10 652.37,695.34 660.70,695.68 C 669.02,696.02 686.73,693.55 697.01,693.07 C 707.29,692.59 737.04,687.73 746.36,691.70 C 755.68,695.67 770.11,716.88 774.68,726.18 C 779.24,735.49 781.95,758.95 784.40,769.25 C 786.85,779.56 794.74,801.60 795.10,812.05 Z" fill="#FE7F2D" fill-opacity="0.5194321321756425" stroke="none" /><path d="M 1077.68,583.25 C 1087.85,581.25 1106.23,582.12 1114.41,579.52 C 1122.58,576.92 1137.52,563.59 1145.81,561.58 C 1154.10,559.56 1175.45,559.71 1183.48,562.70 C 1191.51,565.69 1204.68,581.22 1212.73,586.50 C 1220.79,591.78 1243.85,599.54 1250.61,606.69 C 1257.36,613.85 1265.37,635.81 1269.00,646.14 C 1272.64,656.48 1282.56,682.36 1280.91,692.82 C 1279.26,703.28 1262.87,725.56 1255.23,733.31 C 1247.59,741.06 1225.94,751.70 1217.22,757.42 C 1208.51,763.14 1191.81,776.10 1182.60,780.99 C 1173.39,785.88 1151.62,795.46 1140.45,798.19 C 1129.28,800.91 1101.18,805.97 1089.52,803.71 C 1077.86,801.46 1054.29,786.42 1043.28,779.38 C 1032.28,772.35 1003.70,756.04 997.80,745.10 C 991.90,734.16 993.78,701.20 994.13,688.21 C 994.48,675.21 996.43,647.87 1000.70,636.83 C 1004.96,625.78 1020.42,602.59 1029.66,596.16 C 1038.90,589.73 1067.51,585.24 1077.68,583.25 Z" fill="#215E61" fill-opacity="0.4576343452793671" stroke="none" /><path d="M 458.67,132.67 C 462.59,128.90 471.99,120.85 476.87,119.06 C 481.76,117.27 494.27,117.04 499.34,117.74 C 504.42,118.45 515.16,122.38 519.18,124.93 C 523.20,127.48 529.73,135.75 532.83,139.02 C 535.93,142.29 543.21,148.50 545.00,152.19 C 546.79,155.88 547.40,165.59 547.77,169.77 C 548.14,173.94 549.41,183.38 548.09,187.01 C 546.77,190.64 539.38,197.06 536.74,200.00 C 534.11,202.93 528.96,208.69 526.10,211.46 C 523.24,214.23 516.67,221.27 512.92,223.06 C 509.17,224.86 499.08,226.83 494.85,226.41 C 490.62,225.99 482.01,221.27 477.66,219.53 C 473.31,217.80 462.93,214.77 458.59,211.97 C 454.26,209.18 443.55,200.89 441.51,196.24 C 439.48,191.58 441.31,178.69 441.63,173.20 C 441.96,167.71 442.16,155.35 444.21,150.48 C 446.25,145.62 454.75,136.44 458.67,132.67 Z" fill="#FE7F2D" fill-opacity="0.2903991903595669" stroke="none" /><path d="M 483.68,707.68 C 475.64,701.54 445.90,684.90 442.95,676.13 C 440.01,667.35 453.66,643.06 459.13,634.58 C 464.61,626.11 482.12,613.16 488.56,605.52 C 495.00,597.88 505.26,579.15 512.79,570.92 C 520.31,562.70 541.24,538.18 551.28,536.98 C 561.32,535.78 588.63,552.75 596.44,560.96 C 604.25,569.16 611.36,597.34 616.39,605.36 C 621.41,613.37 632.39,621.95 638.32,627.75 C 644.26,633.55 662.74,646.13 665.85,653.68 C 668.96,661.22 666.27,682.25 664.27,690.63 C 662.28,699.00 651.65,713.49 649.24,723.44 C 646.84,733.40 649.58,764.44 644.21,773.60 C 638.83,782.76 614.75,798.79 604.43,799.79 C 594.10,800.78 566.42,789.30 558.18,781.90 C 549.94,774.50 541.56,744.67 535.77,738.11 C 529.98,731.55 516.17,730.89 509.92,727.24 C 503.67,723.59 491.71,713.81 483.68,707.68 Z" fill="#233D4D" fill-opacity="0.28965784537901085" stroke="none" /><path d="M 144.56,317.39 C 154.38,321.11 171.81,329.77 180.17,333.41 C 188.53,337.05 205.82,343.51 214.21,347.70 C 222.59,351.88 245.75,360.74 250.08,368.27 C 254.41,375.80 252.59,401.32 250.27,410.46 C 247.94,419.59 235.23,437.57 230.73,444.38 C 226.24,451.19 215.55,461.06 212.81,467.21 C 210.06,473.35 210.34,488.67 207.82,495.59 C 205.31,502.51 197.48,520.12 191.83,524.88 C 186.18,529.64 168.47,533.59 160.74,535.25 C 153.01,536.91 135.41,539.37 127.42,538.73 C 119.43,538.09 100.85,534.09 94.14,529.94 C 87.43,525.80 76.76,510.39 71.51,504.19 C 66.27,497.99 55.63,485.20 50.43,478.30 C 45.24,471.40 30.28,455.01 28.23,446.69 C 26.19,438.37 32.44,418.57 33.42,408.94 C 34.40,399.31 32.96,375.77 36.40,366.43 C 39.84,357.09 54.63,338.80 62.06,331.11 C 69.49,323.42 88.40,303.99 98.30,302.34 C 108.20,300.70 134.73,313.66 144.56,317.39 Z" fill="#215E61" fill-opacity="0.30080594904762786" stroke="none" /><path d="M 503.32,-32.76 C 515.82,-39.18 543.60,-71.41 558.85,-75.03 C 574.11,-78.65 615.17,-70.81 630.46,-62.93 C 645.75,-55.06 678.40,-25.08 686.25,-9.42 C 694.11,6.23 699.45,50.75 695.91,67.51 C 692.38,84.26 668.34,119.20 656.80,130.19 C 645.26,141.18 612.87,155.64 599.78,159.08 C 586.70,162.53 559.36,157.20 547.76,158.90 C 536.15,160.60 515.02,172.26 503.07,173.25 C 491.13,174.25 461.66,171.92 448.20,167.21 C 434.75,162.50 402.47,145.84 390.98,134.02 C 379.48,122.19 349.34,82.90 352.41,68.68 C 355.47,54.45 404.23,26.31 416.51,15.48 C 428.78,4.65 444.28,-15.79 454.70,-21.58 C 465.12,-27.36 490.82,-26.35 503.32,-32.76 Z" fill="#FE7F2D" fill-opacity="0.5726508793481033" stroke="none" /><path d="M 843.12,841.73 C 842.37,839.81 840.67,835.85 840.23,833.92 C 839.80,831.99 839.65,827.70 839.46,825.64 C 839.27,823.59 838.51,818.94 838.69,816.80 C 838.87,814.66 839.98,809.79 840.93,807.82 C 841.88,805.85 845.07,802.01 846.63,800.38 C 848.19,798.75 851.97,795.38 853.93,794.26 C 855.89,793.14 860.71,791.85 862.94,791.01 C 865.18,790.18 870.13,787.71 872.54,787.31 C 874.96,786.91 880.54,787.30 883.07,787.70 C 885.60,788.11 891.28,789.53 893.62,790.69 C 895.96,791.84 900.47,795.57 902.57,797.33 C 904.66,799.09 909.27,803.15 911.07,805.37 C 912.87,807.59 916.78,813.12 917.55,815.86 C 918.31,818.59 917.76,825.27 917.44,828.16 C 917.13,831.04 915.77,837.15 914.91,839.88 C 914.05,842.61 911.81,848.53 910.27,850.89 C 908.73,853.25 904.30,857.83 902.10,859.54 C 899.89,861.25 894.44,864.30 891.86,865.14 C 889.28,865.97 883.19,866.62 880.58,866.48 C 877.96,866.33 872.44,864.61 870.07,863.96 C 867.70,863.32 862.91,862.02 860.85,861.10 C 858.78,860.18 854.58,857.66 852.86,856.32 C 851.13,854.98 847.63,851.68 846.46,849.93 C 845.30,848.18 843.87,843.65 843.12,841.73 Z" fill="#FE7F2D" fill-opacity="0.48505875867395065" stroke="none" /><path d="M 822.01,757.84 C 831.17,752.87 850.42,739.35 861.11,736.31 C 871.80,733.27 901.19,728.41 911.08,732.53 C 920.98,736.65 937.15,761.26 943.57,770.65 C 949.99,780.04 961.60,800.67 964.57,810.79 C 967.54,820.90 969.59,844.70 968.32,854.95 C 967.06,865.19 957.62,885.27 954.03,896.16 C 950.45,907.04 945.90,936.86 938.42,945.69 C 930.95,954.51 903.30,968.66 891.74,969.70 C 880.17,970.73 852.86,958.61 842.03,954.32 C 831.19,950.02 811.18,939.53 801.45,933.87 C 791.73,928.22 768.10,915.98 760.98,907.19 C 753.86,898.41 744.43,872.50 742.14,860.69 C 739.84,848.89 736.72,818.74 741.83,808.78 C 746.95,798.83 775.13,783.88 784.75,777.77 C 794.37,771.66 812.85,762.82 822.01,757.84 Z" fill="#215E61" fill-opacity="0.4116029588774285" stroke="none" /><path d="M 148.78,369.34 C 158.51,382.30 182.10,400.68 187.46,412.68 C 192.83,424.69 193.91,456.59 193.47,469.39 C 193.03,482.20 182.19,505.17 183.80,519.36 C 185.42,533.55 207.85,571.79 206.93,587.61 C 206.01,603.43 188.41,642.73 176.13,651.20 C 163.86,659.68 120.11,662.89 104.64,658.23 C 89.18,653.57 58.58,620.19 47.29,612.38 C 36.00,604.57 20.82,596.19 10.58,593.13 C 0.34,590.07 -25.16,590.79 -38.06,586.90 C -50.96,583.00 -87.07,570.90 -96.92,560.65 C -106.77,550.41 -116.25,517.16 -120.15,501.56 C -124.06,485.95 -134.62,444.95 -129.46,430.58 C -124.29,416.22 -87.96,395.48 -77.13,381.83 C -66.30,368.18 -52.73,324.28 -39.22,316.85 C -25.70,309.42 17.99,321.37 35.47,319.92 C 52.95,318.46 92.83,298.78 106.43,304.71 C 120.03,310.64 139.06,356.38 148.78,369.34 Z" fill="#233D4D" fill-opacity="0.335299950541972" stroke="none" /><path d="M 767.51,793.21 C 772.04,786.82 783.83,775.38 788.77,770.33 C 793.72,765.29 804.28,756.32 808.71,751.14 C 813.14,745.97 820.85,733.05 825.69,727.19 C 830.53,721.33 842.31,707.81 849.04,702.29 C 855.77,696.76 873.12,684.05 881.77,681.12 C 890.41,678.18 912.94,674.70 921.05,677.84 C 929.15,680.99 942.43,701.32 949.32,707.31 C 956.20,713.31 972.61,721.76 978.40,727.81 C 984.19,733.85 994.96,749.86 997.58,757.67 C 1000.20,765.48 1000.88,784.83 1000.22,792.87 C 999.56,800.92 993.50,817.44 992.06,824.71 C 990.63,831.98 990.42,847.00 988.24,853.43 C 986.06,859.87 977.46,872.47 973.89,878.33 C 970.32,884.19 962.28,895.92 958.49,902.29 C 954.71,908.66 947.73,925.87 942.37,931.43 C 937.01,936.98 921.26,946.54 913.84,948.61 C 906.43,950.68 887.81,951.38 880.55,948.65 C 873.30,945.92 859.76,929.73 853.39,925.83 C 847.02,921.93 832.82,919.75 827.48,916.15 C 822.13,912.55 814.82,899.76 808.86,895.81 C 802.89,891.86 783.33,888.09 777.79,883.24 C 772.25,878.39 765.89,862.52 762.68,855.37 C 759.47,848.21 750.47,831.08 751.05,823.62 C 751.63,816.16 762.98,799.61 767.51,793.21 Z" fill="#FE7F2D" fill-opacity="0.520541907764489" stroke="none" /><path d="M 149.65,602.30 C 146.82,606.25 138.13,613.94 133.77,616.04 C 129.42,618.14 118.09,620.02 113.37,619.78 C 108.64,619.55 98.36,616.20 94.40,614.06 C 90.43,611.92 82.80,605.34 80.33,601.95 C 77.85,598.57 75.13,589.72 73.78,585.86 C 72.44,582.00 69.40,573.79 69.13,569.78 C 68.86,565.77 69.81,556.05 71.53,552.42 C 73.25,548.79 80.20,542.00 83.47,539.52 C 86.74,537.03 94.94,532.40 98.76,531.74 C 102.59,531.08 111.51,533.19 115.33,534.00 C 119.15,534.80 127.39,536.56 130.62,538.43 C 133.85,540.30 139.77,546.52 142.27,549.59 C 144.77,552.66 149.64,559.99 151.45,564.02 C 153.26,568.04 157.55,578.53 157.34,583.12 C 157.12,587.72 152.48,598.35 149.65,602.30 Z" fill="#FE7F2D" fill-opacity="0.6456413295295971" stroke="none" /><path d="M 787.23,899.52 C 779.32,912.41 749.18,935.45 734.65,941.05 C 720.13,946.64 683.05,947.20 666.17,946.15 C 649.28,945.11 605.43,942.96 593.93,932.32 C 582.43,921.69 572.74,874.17 570.31,857.53 C 567.89,840.88 571.45,807.02 573.75,793.62 C 576.06,780.22 589.05,757.42 589.53,745.85 C 590.01,734.29 576.78,708.69 577.79,697.25 C 578.79,685.82 589.15,657.22 597.90,650.56 C 606.66,643.89 639.44,643.69 650.74,641.71 C 662.04,639.74 681.66,637.53 692.08,634.10 C 702.50,630.68 722.14,620.76 737.57,613.17 C 753.00,605.59 802.70,571.19 820.67,570.91 C 838.63,570.63 875.90,597.32 887.27,610.81 C 898.65,624.29 916.51,665.80 915.45,683.27 C 914.39,700.75 889.77,742.92 878.46,756.46 C 867.15,770.00 830.53,786.83 821.18,796.10 C 811.84,805.37 804.65,821.29 800.58,833.71 C 796.51,846.12 795.14,886.64 787.23,899.52 Z" fill="#215E61" fill-opacity="0.36654296233083056" stroke="none" /><path d="M 895.99,1038.46 C 896.44,1046.66 886.00,1065.88 882.15,1073.56 C 878.30,1081.24 869.94,1097.46 863.88,1102.45 C 857.83,1107.44 838.52,1112.21 831.69,1115.11 C 824.85,1118.02 813.21,1126.35 806.92,1126.64 C 800.64,1126.94 785.12,1119.13 779.32,1117.56 C 773.51,1115.99 763.89,1113.68 758.51,1113.58 C 753.14,1113.48 740.12,1117.56 734.56,1116.74 C 728.99,1115.91 715.39,1110.99 712.15,1106.72 C 708.91,1102.46 709.86,1086.44 707.55,1081.18 C 705.25,1075.93 695.65,1067.97 692.95,1062.92 C 690.25,1057.87 686.35,1045.31 685.06,1039.08 C 683.77,1032.84 681.47,1017.76 682.21,1010.97 C 682.95,1004.18 688.16,989.36 691.23,982.49 C 694.30,975.61 702.76,960.61 707.83,953.67 C 712.90,946.72 725.90,928.15 733.47,924.60 C 741.04,921.05 762.42,922.45 770.92,924.06 C 779.42,925.68 796.68,934.53 804.31,938.05 C 811.94,941.58 827.05,949.49 834.49,953.44 C 841.94,957.40 861.10,964.81 866.37,971.02 C 871.63,977.22 874.83,997.07 878.39,1005.16 C 881.94,1013.26 895.54,1030.25 895.99,1038.46 Z" fill="#233D4D" fill-opacity="0.29023693389760197" stroke="none" /><path d="M 478.87,893.73 C 481.40,894.21 487.71,895.34 489.46,897.05 C 491.20,898.76 492.29,905.66 493.40,907.96 C 494.51,910.27 497.49,914.11 498.69,916.25 C 499.90,918.40 502.55,923.29 503.44,925.84 C 504.34,928.39 505.78,934.43 506.14,937.51 C 506.50,940.59 507.28,948.39 506.44,951.52 C 505.60,954.66 501.43,961.22 499.14,963.67 C 496.85,966.12 490.37,970.12 487.32,971.94 C 484.27,973.77 477.21,978.09 473.73,978.88 C 470.24,979.67 461.89,979.21 458.30,978.55 C 454.71,977.89 446.57,975.55 443.79,973.39 C 441.01,971.22 437.13,963.38 435.14,960.50 C 433.15,957.61 428.65,952.22 427.20,949.33 C 425.76,946.44 423.89,939.60 423.09,936.41 C 422.28,933.22 420.56,926.09 420.50,922.75 C 420.45,919.41 421.10,911.43 422.65,908.56 C 424.20,905.70 430.91,901.08 433.42,898.90 C 435.93,896.72 440.75,891.56 443.55,890.41 C 446.35,889.26 453.77,888.98 456.75,889.30 C 459.72,889.62 465.70,892.53 468.36,893.06 C 471.01,893.59 476.33,893.25 478.87,893.73 Z" fill="#233D4D" fill-opacity="0.29259298848423243" stroke="none" /><path d="M 915.52,153.63 C 913.58,156.54 908.24,162.08 905.67,164.74 C 903.09,167.40 897.29,173.60 894.07,175.81 C 890.84,178.02 882.69,182.26 878.79,183.16 C 874.90,184.06 865.82,183.55 861.60,183.31 C 857.38,183.08 847.35,182.94 843.60,181.21 C 839.85,179.48 833.10,172.10 830.32,168.92 C 827.54,165.74 822.12,158.37 820.42,154.72 C 818.72,151.06 816.52,142.31 816.14,138.44 C 815.76,134.56 816.67,126.07 817.26,122.41 C 817.85,118.75 819.77,111.18 821.06,107.93 C 822.34,104.69 826.19,98.26 827.98,95.35 C 829.76,92.43 833.39,85.66 835.94,83.65 C 838.50,81.64 846.15,79.60 849.26,78.57 C 852.36,77.55 858.78,75.98 861.83,75.09 C 864.88,74.20 871.44,71.63 874.67,71.17 C 877.90,70.71 885.23,70.92 888.73,71.26 C 892.22,71.59 900.43,72.58 903.79,73.97 C 907.15,75.36 914.34,80.09 916.72,82.84 C 919.10,85.60 922.44,93.45 923.61,96.93 C 924.77,100.41 926.02,108.27 926.42,111.84 C 926.82,115.41 927.50,123.24 926.95,126.67 C 926.39,130.11 923.18,137.23 921.80,140.47 C 920.43,143.70 917.46,150.71 915.52,153.63 Z" fill="#FE7F2D" fill-opacity="0.6469225788259102" stroke="none" /><path d="M 415.69,909.77 C 418.73,912.20 425.39,917.29 428.09,920.17 C 430.78,923.04 436.72,930.08 438.13,933.71 C 439.54,937.35 439.03,946.36 439.83,950.50 C 440.64,954.63 444.53,963.76 444.83,968.15 C 445.14,972.54 444.77,983.63 442.37,987.07 C 439.97,990.51 428.70,994.71 424.83,996.82 C 420.96,998.93 413.80,1003.50 410.13,1004.66 C 406.47,1005.82 397.93,1005.24 394.31,1006.52 C 390.69,1007.79 383.43,1015.23 379.97,1015.27 C 376.50,1015.31 368.49,1009.07 365.45,1006.86 C 362.40,1004.66 356.65,999.52 354.57,996.89 C 352.49,994.26 349.68,987.54 348.12,984.95 C 346.55,982.35 343.41,977.60 341.52,975.25 C 339.63,972.90 334.50,968.19 332.40,965.39 C 330.31,962.58 325.07,955.41 324.05,951.89 C 323.03,948.36 323.67,940.05 323.88,935.99 C 324.09,931.93 324.47,922.17 325.80,918.04 C 327.14,913.91 331.88,904.54 335.01,901.56 C 338.13,898.59 347.64,894.42 351.86,893.23 C 356.07,892.04 365.88,891.38 370.11,891.63 C 374.34,891.88 383.19,894.30 387.11,895.30 C 391.04,896.29 399.40,898.21 402.83,899.95 C 406.26,901.69 412.66,907.34 415.69,909.77 Z" fill="#233D4D" fill-opacity="0.5495226738614101" stroke="none" /><path d="M 335.59,394.89 C 336.39,404.12 328.71,426.48 324.28,434.82 C 319.86,443.16 304.40,457.90 298.71,464.39 C 293.01,470.87 282.77,484.14 276.81,488.86 C 270.85,493.58 254.59,495.82 249.06,503.72 C 243.53,511.61 237.82,550.31 230.72,554.66 C 223.61,559.01 198.95,543.02 189.88,539.96 C 180.81,536.90 163.17,532.42 155.14,529.17 C 147.12,525.91 130.21,517.71 123.04,512.82 C 115.86,507.94 99.89,495.62 95.35,488.45 C 90.82,481.27 88.31,461.44 85.24,453.02 C 82.17,444.61 72.83,427.57 69.78,418.32 C 66.72,409.08 61.39,387.44 59.78,375.96 C 58.17,364.47 52.00,332.70 56.35,322.62 C 60.70,312.53 85.74,297.17 96.02,291.92 C 106.31,286.67 131.31,281.39 142.05,278.88 C 152.78,276.37 174.88,272.29 185.46,271.02 C 196.05,269.75 220.50,265.45 230.27,268.29 C 240.04,271.13 258.85,288.15 266.89,294.71 C 274.93,301.27 291.22,315.35 297.31,322.93 C 303.39,330.51 313.02,349.28 317.61,357.91 C 322.20,366.55 334.79,385.66 335.59,394.89 Z" fill="#215E61" fill-opacity="0.5646553045442422" stroke="none" /><path d="M 734.17,649.13 C 737.04,641.79 746.63,627.03 751.31,620.43 C 755.99,613.83 767.97,601.99 773.17,594.13 C 778.37,586.26 787.52,562.79 794.64,554.91 C 801.76,547.03 822.44,531.99 832.49,528.45 C 842.53,524.91 867.90,523.31 878.35,525.40 C 888.79,527.49 909.93,540.78 919.52,545.84 C 929.11,550.91 950.42,560.74 958.26,567.58 C 966.10,574.43 979.30,594.08 984.85,602.93 C 990.39,611.77 1001.82,631.58 1004.48,641.29 C 1007.13,650.99 1004.00,673.38 1006.97,683.82 C 1009.94,694.26 1029.14,717.99 1029.20,728.29 C 1029.27,738.59 1015.83,762.49 1007.52,769.67 C 999.20,776.86 969.51,783.87 959.94,788.15 C 950.37,792.44 935.17,801.25 927.79,805.37 C 920.41,809.48 906.22,822.12 898.43,822.45 C 890.64,822.79 870.23,811.91 862.89,808.14 C 855.54,804.38 844.81,789.95 837.23,791.07 C 829.66,792.19 809.96,813.51 799.73,817.48 C 789.51,821.45 762.12,826.23 752.01,824.14 C 741.91,822.05 721.39,807.98 715.52,800.07 C 709.66,792.15 704.23,768.22 703.13,758.19 C 702.04,748.16 703.49,725.68 706.40,716.48 C 709.31,707.29 724.05,689.66 727.38,681.58 C 730.71,673.50 731.29,656.47 734.17,649.13 Z" fill="#215E61" fill-opacity="0.511567515787108" stroke="none" /><path d="M 714.97,533.39 C 703.79,529.34 687.67,518.17 672.78,518.89 C 657.90,519.60 606.98,542.67 590.92,539.37 C 574.85,536.07 542.38,505.88 538.88,491.36 C 535.37,476.84 555.04,433.12 561.70,418.39 C 568.35,403.66 587.55,379.42 594.36,368.61 C 601.17,357.81 612.54,338.33 618.44,328.35 C 624.34,318.37 635.41,294.46 643.54,285.46 C 651.68,276.45 674.69,257.02 686.23,253.31 C 697.78,249.59 725.76,255.96 739.75,254.49 C 753.73,253.02 787.28,240.15 802.78,241.06 C 818.28,241.98 857.78,251.97 868.90,262.12 C 880.01,272.28 887.75,310.75 895.43,325.67 C 903.12,340.58 931.94,371.25 932.95,386.40 C 933.96,401.56 908.26,435.55 903.83,451.97 C 899.40,468.40 903.77,509.60 896.05,523.28 C 888.32,536.96 855.04,562.48 839.43,566.00 C 823.83,569.53 780.95,556.56 766.02,552.65 C 751.08,548.73 726.16,537.45 714.97,533.39 Z" fill="#233D4D" fill-opacity="0.4972523862431901" stroke="none" /><path d="M 637.20,194.46 C 632.89,198.99 618.76,204.39 613.22,207.26 C 607.68,210.14 596.54,217.87 591.00,218.42 C 585.46,218.98 572.09,214.16 567.04,211.89 C 561.98,209.63 553.86,201.78 548.89,199.53 C 543.92,197.28 529.75,196.42 525.64,193.14 C 521.52,189.85 516.58,177.47 514.62,172.13 C 512.67,166.79 510.47,154.81 509.34,148.62 C 508.22,142.43 503.76,126.65 505.26,120.54 C 506.76,114.44 516.82,101.81 521.84,97.73 C 526.86,93.66 540.99,88.68 547.08,86.60 C 553.17,84.52 565.94,82.08 572.60,80.40 C 579.26,78.73 594.74,72.94 602.56,72.61 C 610.38,72.28 630.74,73.83 637.77,77.69 C 644.80,81.55 658.84,97.16 661.14,104.74 C 663.43,112.33 658.32,133.15 656.88,140.92 C 655.44,148.70 651.49,163.10 649.13,169.52 C 646.77,175.95 641.51,189.93 637.20,194.46 Z" fill="#215E61" fill-opacity="0.5470238292800542" stroke="none" /><path d="M 404.62,457.58 C 413.77,454.78 435.50,439.66 447.14,437.94 C 458.77,436.22 491.10,437.43 501.55,443.24 C 512.00,449.06 531.31,474.76 534.22,486.37 C 537.13,497.98 530.34,529.03 525.82,539.98 C 521.30,550.94 502.94,569.73 496.55,577.67 C 490.16,585.61 478.36,598.77 472.59,606.11 C 466.81,613.46 456.12,631.15 448.46,638.88 C 440.80,646.60 419.76,666.81 408.73,670.46 C 397.69,674.10 367.24,673.79 356.51,669.25 C 345.79,664.71 324.67,642.94 319.32,632.65 C 313.98,622.36 311.17,594.16 311.96,583.50 C 312.75,572.84 324.83,552.81 325.89,543.85 C 326.94,534.88 318.64,516.21 320.78,508.81 C 322.91,501.40 337.70,487.83 343.71,482.12 C 349.72,476.42 363.53,464.21 370.84,461.27 C 378.15,458.32 395.46,460.38 404.62,457.58 Z" fill="#FE7F2D" fill-opacity="0.43052617877560934" stroke="none" /><path d="M 1117.43,346.53 C 1113.99,363.64 1099.53,399.79 1090.06,413.54 C 1080.59,427.29 1052.70,454.33 1038.52,461.11 C 1024.33,467.89 986.98,469.76 971.86,470.06 C 956.73,470.35 928.32,464.04 912.50,463.58 C 896.67,463.13 853.45,472.93 839.98,466.27 C 826.50,459.61 807.97,422.76 800.22,408.04 C 792.48,393.33 778.69,360.09 775.44,343.65 C 772.19,327.21 770.60,288.94 773.14,271.02 C 775.68,253.10 785.59,208.78 796.62,194.34 C 807.64,179.89 847.41,156.10 865.02,150.66 C 882.63,145.23 924.24,149.66 943.38,149.02 C 962.53,148.37 1006.37,140.22 1024.56,145.29 C 1042.76,150.35 1083.70,176.17 1095.00,191.25 C 1106.29,206.33 1115.96,252.31 1118.66,270.94 C 1121.35,289.58 1120.86,329.42 1117.43,346.53 Z" fill="#FE7F2D" fill-opacity="0.3649605108505522" stroke="none" /><path d="M 782.29,171.61 C 773.02,165.67 758.25,143.20 751.44,137.63 C 744.63,132.05 733.71,126.60 725.55,125.14 C 717.38,123.67 692.00,128.52 683.39,125.44 C 674.77,122.35 660.38,106.86 653.77,99.42 C 647.15,91.98 632.17,73.14 628.29,63.41 C 624.42,53.68 620.35,28.89 621.45,18.32 C 622.55,7.76 631.81,-15.57 637.44,-24.65 C 643.07,-33.72 660.17,-50.84 668.37,-57.30 C 676.57,-63.76 697.10,-72.03 705.80,-78.47 C 714.49,-84.91 730.99,-106.60 740.84,-110.98 C 750.68,-115.37 776.69,-115.89 787.84,-115.01 C 798.98,-114.12 824.35,-109.11 833.71,-103.61 C 843.07,-98.11 858.50,-77.13 865.85,-69.16 C 873.19,-61.18 889.00,-45.63 894.89,-37.16 C 900.79,-28.68 914.53,-8.33 914.96,1.48 C 915.39,11.28 901.31,35.06 898.47,44.57 C 895.64,54.09 892.98,71.67 891.34,80.77 C 889.70,89.88 888.15,111.22 884.78,120.45 C 881.42,129.67 870.04,149.63 863.32,157.63 C 856.59,165.63 838.47,185.43 828.75,187.10 C 819.03,188.78 791.57,177.54 782.29,171.61 Z" fill="#215E61" fill-opacity="0.4015046570156436" stroke="none" /><path d="M 545.04,412.12 C 551.37,406.08 571.10,398.54 577.53,394.28 C 583.95,390.01 593.28,380.37 598.59,376.61 C 603.90,372.85 615.63,363.15 621.76,362.93 C 627.90,362.71 643.68,373.47 649.69,374.74 C 655.70,376.00 665.70,374.61 671.86,373.48 C 678.02,372.34 693.52,365.76 701.04,365.27 C 708.56,364.79 728.90,365.47 734.51,369.43 C 740.12,373.40 743.95,391.76 747.78,398.33 C 751.61,404.91 763.28,417.24 766.46,424.20 C 769.65,431.16 775.66,449.08 774.31,456.34 C 772.95,463.60 759.70,478.60 755.17,484.74 C 750.65,490.87 741.48,502.75 736.60,507.44 C 731.72,512.13 720.07,520.76 714.48,523.84 C 708.89,526.92 695.97,532.29 690.00,533.13 C 684.02,533.97 670.77,529.61 664.67,530.83 C 658.58,532.05 646.31,540.92 639.21,543.33 C 632.10,545.74 614.49,550.27 605.45,550.90 C 596.41,551.53 572.87,551.80 563.87,548.57 C 554.86,545.34 536.28,531.55 530.42,523.96 C 524.56,516.37 515.72,494.84 515.05,485.31 C 514.37,475.79 521.21,453.36 524.81,444.57 C 528.41,435.79 538.71,418.16 545.04,412.12 Z" fill="#233D4D" fill-opacity="0.46748833779327814" stroke="none" /><path d="M 421.47,1043.16 C 426.32,1040.54 438.00,1033.89 443.59,1032.91 C 449.17,1031.94 462.29,1033.66 468.01,1035.03 C 473.73,1036.40 486.93,1040.60 491.27,1044.33 C 495.62,1048.06 499.70,1061.88 504.21,1066.16 C 508.73,1070.43 526.32,1075.02 528.92,1079.97 C 531.53,1084.91 527.84,1101.39 525.89,1107.34 C 523.94,1113.30 514.90,1124.60 512.67,1129.57 C 510.44,1134.54 508.64,1144.03 507.30,1148.79 C 505.96,1153.55 503.25,1163.95 501.51,1169.24 C 499.76,1174.53 496.29,1188.48 492.75,1192.89 C 489.21,1197.29 477.21,1201.97 471.99,1205.94 C 466.77,1209.92 455.38,1224.04 449.28,1226.00 C 443.18,1227.96 428.73,1221.63 421.12,1222.28 C 413.50,1222.93 394.46,1231.34 385.82,1231.42 C 377.18,1231.49 356.61,1227.17 349.13,1222.88 C 341.66,1218.59 328.00,1203.19 323.54,1195.68 C 319.08,1188.18 314.79,1168.85 311.97,1160.32 C 309.16,1151.78 297.89,1132.59 300.12,1124.57 C 302.34,1116.55 323.82,1099.65 330.52,1093.47 C 337.21,1087.28 349.98,1077.02 355.90,1073.03 C 361.82,1069.04 374.19,1062.42 379.85,1060.22 C 385.52,1058.03 398.13,1056.76 403.12,1054.71 C 408.11,1052.66 416.61,1045.77 421.47,1043.16 Z" fill="#215E61" fill-opacity="0.2827110304696922" stroke="none" /><path d="M 366.99,339.99 C 369.76,339.20 376.22,337.53 378.96,337.92 C 381.71,338.31 387.60,341.61 389.85,343.23 C 392.11,344.84 395.84,349.45 397.75,351.39 C 399.66,353.34 404.24,357.16 405.79,359.45 C 407.34,361.74 410.34,367.73 410.68,370.50 C 411.02,373.26 409.64,379.84 408.63,382.47 C 407.61,385.09 404.13,390.44 402.24,392.38 C 400.34,394.32 395.16,397.41 392.85,398.63 C 390.54,399.84 385.43,401.67 382.96,402.50 C 380.48,403.34 375.11,405.03 372.24,405.60 C 369.37,406.18 362.29,407.66 359.05,407.31 C 355.81,406.96 347.98,404.65 345.24,402.68 C 342.50,400.71 337.93,394.04 336.23,390.90 C 334.53,387.76 330.99,379.95 331.06,376.52 C 331.13,373.09 334.99,365.22 336.85,362.33 C 338.71,359.43 344.28,354.55 346.57,352.42 C 348.85,350.28 353.47,346.03 355.92,344.54 C 358.37,343.05 364.23,340.79 366.99,339.99 Z" fill="#215E61" fill-opacity="0.5708861622937262" stroke="none" /></svg>