<?xml version="1.0" encoding="utf-8" ?>
<svg baseProfile="full" height="1200" version="1.1" width="1200" xmlns="http://www.w3.org/2000/svg" xmlns:ev="http://www.w3.org/2001/xml-events" xmlns:xlink="http://www.w3.org/1999/xlink"><defs /><rect fill="#F5FBE6" height="100%" width="100%" x="0" y="0" /><circle cx="40.90909090909091" cy="40.90909090909091" fill="#233D4D" r="50.31818181818182" stroke="none" stroke-width="3.2" /><line stroke="#233D4D" stroke-width="1.92" x1="96.81818181818181" x2="96.81818181818181" y1="-15.0" y2="96.81818181818181" /><line stroke="#233D4D" stroke-width="1.92" x1="119.18181818181817" x2="119.18181818181817" y1="-15.0" y2="96.81818181818181" /><line stroke="#233D4D" stroke-width="1.92" x1="141.54545454545453" x2="141.54545454545453" y1="-15.0" y2="96.81818181818181" /><line stroke="#233D4D" stroke-width="1.92" x1="163.9090909090909" x2="163.9090909090909" y1="-15.0" y2="96.81818181818181" /><line stroke="#233D4D" stroke-width="1.92" x1="186.27272727272725" x2="186.27272727272725" y1="-15.0" y2="96.81818181818181" /><circle cx="376.3636363636364" cy="40.90909090909091" fill="#233D4D" r="50.31818181818182" stroke="none" stroke-width="3.2" /><circle cx="488.18181818181813" cy="40.90909090909091" fill="#215E61" r="50.31818181818182" stroke="none" stroke-width="3.2" /><circle cx="599.9999999999999" cy="40.90909090909091" fill="#233D4D" r="50.31818181818182" stroke="none" stroke-width="3.2" /><circle cx="711.8181818181818" cy="40.90909090909091" fill="#233D4D" r="50.31818181818182" stroke="none" stroke-width="3.2" /><line stroke="#215E61" stroke-width="1.92" x1="879.5454545454545" x2="879.5454545454545" y1="-15.0" y2="96.81818181818181" /><line stroke="#215E61" stroke-width="1.92" x1="907.5" x2="907.5" y1="-15.0" y2="96.81818181818181" /><line stroke="#215E61" stroke-width="1.92" x1="935.4545454545454" x2="935.4545454545454" y1="-15.0" y2="96.81818181818181" /><line stroke="#215E61" stroke-width="1.92" x1="963.4090909090909" x2="963.4090909090909" y1="-15.0" y2="96.81818181818181" /><line stroke="#233D4D" stroke-width="1.92" x1="991.3636363636363" x2="991.3636363636363" y1="-15.0" y2="96.81818181818181" /><line stroke="#233D4D" stroke-width="1.92" x1="1013.7272727272726" x2="1013.7272727272726" y1="-15.0" y2="96.81818181818181" /><line stroke="#233D4D" stroke-width="1.92" x1="1036.090909090909" x2="1036.090909090909" y1="-15.0" y2="96.81818181818181" /><line stroke="#233D4D" stroke-width="1.92" x1="1058.4545454545453" x2="1058.4545454545453" y1="-15.0" y2="96.81818181818181" /><line stroke="#233D4D" stroke-width="1.92" x1="1080.8181818181818" x2="1080.8181818181818" y1="-15.0" y2="96.81818181818181" /><line stroke="#233D4D" stroke-width="1.92" x1="1103.181818181818" x2="1103.181818181818" y1="-15.0" y2="96.81818181818181" /><line stroke="#233D4D" stroke-width="1.92" x1="1125.5454545454543" x2="1125.5454545454543" y1="-15.0" y2="96.81818181818181" /><line stroke="#233D4D" stroke-width="1.92" x1="1147.9090909090908" x2="1147.9090909090908" y1="-15.0" y2="96.81818181818181" /><line stroke="#233D4D" stroke-width="1.92" x1="1170.272727272727" x2="1170.272727272727" y1="-15.0" y2="96.81818181818181" /><line stroke="#233D4D" stroke-width="1.92" x1="1192.6363636363635" x2="1192.6363636363635" y1="-15.0" y2="96.81818181818181" /><circle cx="40.90909090909091" cy="152.72727272727272" fill="#233D4D" r="50.31818181818182" stroke="none" stroke-width="3.2" /><line stroke="#233D4D" stroke-width="1.92" x1="96.81818181818181" x2="96.81818181818181" y1="96.81818181818181" y2="208.63636363636363" /><line stroke="#233D4D" stroke-width="1.92" x1="124.77272727272727" x2="124.77272727272727" y1="96.81818181818181" y2="208.63636363636363" /><line stroke="#233D4D" stroke-width="1.92" x1="152.72727272727272" x2="152.72727272727272" y1="96.81818181818181" y2="208.63636363636363" /><line stroke="#233D4D" stroke-width="1.92" x1="180.6818181818182" x2="180.6818181818182" y1="96.81818181818181" y2="208.63636363636363" /><line stroke="#215E61" stroke-width="1.92" x1="208.63636363636363" x2="208.63636363636363" y1="96.81818181818181" y2="208.63636363636363" /><line stroke="#215E61" stroke-width="1.92" x1="231.0" x2="231.0" y1="96.81818181818181" y2="208.63636363636363" /><line stroke="#215E61" stroke-width="1.92" x1="253.36363636363635" x2="253.36363636363635" y1="96.81818181818181" y2="208.63636363636363" /><line stroke="#215E61" stroke-width="1.92" x1="275.72727272727275" x2="275.72727272727275" y1="96.81818181818181" y2="208.63636363636363" /><line stroke="#215E61" stroke-width="1.92" x1="298.09090909090907" x2="298.09090909090907" y1="96.81818181818181" y2="208.63636363636363" /><circle cx="376.3636363636364" cy="152.72727272727272" fill="#FE7F2D" r="50.31818181818182" stroke="none" stroke-width="3.2" /><polygon fill="none" points="599.9999999999999,96.81818181818181 544.090909090909,193.65556787771447 655.9090909090908,193.65556787771447" stroke="#FE7F2D" stroke-width="3.2" /><polygon fill="#FE7F2D" points="711.8181818181818,96.81818181818181 655.9090909090909,193.65556787771447 767.7272727272727,193.65556787771447" stroke="none" stroke-width="3.2" /><polygon fill="none" points="823.6363636363636,96.81818181818181 767.7272727272727,193.65556787771447 879.5454545454545,193.65556787771447" stroke="#FE7F2D" stroke-width="3.2" /><polygon fill="#215E61" points="935.4545454545454,96.81818181818181 879.5454545454545,193.65556787771447 991.3636363636363,193.65556787771447" stroke="none" stroke-width="3.2" /><line stroke="#215E61" stroke-width="1.92" x1="991.3636363636363" x2="991.3636363636363" y1="96.81818181818181" y2="208.63636363636363" /><line stroke="#215E61" stroke-width="1.92" x1="1009.9999999999999" x2="1009.9999999999999" y1="96.81818181818181" y2="208.63636363636363" /><line stroke="#215E61" stroke-width="1.92" x1="1028.6363636363635" x2="1028.6363636363635" y1="96.81818181818181" y2="208.63636363636363" /><line stroke="#215E61" stroke-width="1.92" x1="1047.2727272727273" x2="1047.2727272727273" y1="96.81818181818181" y2="208.63636363636363" /><line stroke="#215E61" stroke-width="1.92" x1="1065.9090909090908" x2="1065.9090909090908" y1="96.81818181818181" y2="208.63636363636363" /><line stroke="#215E61" stroke-width="1.92" x1="1084.5454545454545" x2="1084.5454545454545" y1="96.81818181818181" y2="208.63636363636363" /><circle cx="1159.090909090909" cy="152.72727272727272" fill="none" r="50.31818181818182" stroke="#FE7F2D" stroke-width="3.2" /><circle cx="40.90909090909091" cy="264.5454545454545" fill="#233D4D" r="50.31818181818182" stroke="none" stroke-width="3.2" /><circle cx="264.5454545454545" cy="264.5454545454545" fill="#233D4D" r="50.31818181818182" stroke="none" stroke-width="3.2" /><circle cx="376.3636363636364" cy="264.5454545454545" fill="none" r="50.31818181818182" stroke="#215E61" stroke-width="3.2" /><polygon fill="#FE7F2D" points="488.18181818181813,208.63636363636363 432.27272727272725,305.4737496958963 544.090909090909,305.4737496958963" stroke="none" stroke-width="3.2" /><polygon fill="#233D4D" points="599.9999999999999,208.63636363636363 544.090909090909,305.4737496958963 655.9090909090908,305.4737496958963" stroke="none" stroke-width="3.2" /><polygon fill="none" points="823.6363636363636,208.63636363636363 767.7272727272727,305.4737496958963 879.5454545454545,305.4737496958963" stroke="#215E61" stroke-width="3.2" /><line stroke="#215E61" stroke-width="1.92" x1="879.5454545454545" x2="879.5454545454545" y1="208.63636363636363" y2="320.45454545454544" /><line stroke="#215E61" stroke-width="1.92" x1="895.5194805194805" x2="895.5194805194805" y1="208.63636363636363" y2="320.45454545454544" /><line stroke="#215E61" stroke-width="1.92" x1="911.4935064935064" x2="911.4935064935064" y1="208.63636363636363" y2="320.45454545454544" /><line stroke="#215E61" stroke-width="1.92" x1="927.4675324675325" x2="927.4675324675325" y1="208.63636363636363" y2="320.45454545454544" /><line stroke="#215E61" stroke-width="1.92" x1="943.4415584415584" x2="943.4415584415584" y1="208.63636363636363" y2="320.45454545454544" /><line stroke="#215E61" stroke-width="1.92" x1="959.4155844155844" x2="959.4155844155844" y1="208.63636363636363" y2="320.45454545454544" /><line stroke="#215E61" stroke-width="1.92" x1="975.3896103896103" x2="975.3896103896103" y1="208.63636363636363" y2="320.45454545454544" /><line stroke="#FE7F2D" stroke-width="1.92" x1="991.3636363636363" x2="991.3636363636363" y1="208.63636363636363" y2="320.45454545454544" /><line stroke="#FE7F2D" stroke-width="1.92" x1="1007.3376623376622" x2="1007.3376623376622" y1="208.63636363636363" y2="320.45454545454544" /><line stroke="#FE7F2D" stroke-width="1.92" x1="1023.3116883116882" x2="1023.3116883116882" y1="208.63636363636363" y2="320.45454545454544" /><line stroke="#FE7F2D" stroke-width="1.92" x1="1039.2857142857142" x2="1039.2857142857142" y1="208.63636363636363" y2="320.45454545454544" /><line stroke="#FE7F2D" stroke-width="1.92" x1="1055.25974025974" x2="1055.25974025974" y1="208.63636363636363" y2="320.45454545454544" /><line stroke="#FE7F2D" stroke-width="1.92" x1="1071.2337662337661" x2="1071.2337662337661" y1="208.63636363636363" y2="320.45454545454544" /><line stroke="#FE7F2D" stroke-width="1.92" x1="1087.2077922077922" x2="1087.2077922077922" y1="208.63636363636363" y2="320.45454545454544" /><circle cx="1159.090909090909" cy="264.5454545454545" fill="#233D4D" r="50.31818181818182" stroke="none" stroke-width="3.2" /><polygon fill="#233D4D" points="40.90909090909091,320.45454545454544 -15.0,417.2919315140781 96.81818181818181,417.2919315140781" stroke="none" stroke-width="3.2" /><line stroke="#215E61" stroke-width="1.92" x1="96.81818181818181" x2="96.81818181818181" y1="320.45454545454544" y2="432.27272727272725" /><line stroke="#215E61" stroke-width="1.92" x1="115.45454545454545" x2="115.45454545454545" y1="320.45454545454544" y2="432.27272727272725" /><line stroke="#215E61" stroke-width="1.92" x1="134.0909090909091" x2="134.0909090909091" y1="320.45454545454544" y2="432.27272727272725" /><line stroke="#215E61" stroke-width="1.92" x1="152.72727272727272" x2="152.72727272727272" y1="320.45454545454544" y2="432.27272727272725" /><line stroke="#215E61" stroke-width="1.92" x1="171.36363636363637" x2="171.36363636363637" y1="320.45454545454544" y2="432.27272727272725" /><line stroke="#215E61" stroke-width="1.92" x1="190.0" x2="190.0" y1="320.45454545454544" y2="432.27272727272725" /><line stroke="#FE7F2D" stroke-width="1.92" x1="320.45454545454544" x2="320.45454545454544" y1="320.45454545454544" y2="432.27272727272725" /><line stroke="#FE7F2D" stroke-width="1.92" x1="348.4090909090909" x2="348.4090909090909" y1="320.45454545454544" y2="432.27272727272725" /><line stroke="#FE7F2D" stroke-width="1.92" x1="376.3636363636364" x2="376.3636363636364" y1="320.45454545454544" y2="432.27272727272725" /><line stroke="#FE7F2D" stroke-width="1.92" x1="404.3181818181818" x2="404.3181818181818" y1="320.45454545454544" y2="432.27272727272725" /><polygon fill="#233D4D" points="488.18181818181813,320.45454545454544 432.27272727272725,417.2919315140781 544.090909090909,417.2919315140781" stroke="none" stroke-width="3.2" /><line stroke="#FE7F2D" stroke-width="1.92" x1="544.090909090909" x2="544.090909090909" y1="320.45454545454544" y2="432.27272727272725" /><line stroke="#FE7F2D" stroke-width="1.92" x1="581.3636363636363" x2="581.3636363636363" y1="320.45454545454544" y2="432.27272727272725" /><line stroke="#FE7F2D" stroke-width="1.92" x1="618.6363636363635" x2="618.6363636363635" y1="320.45454545454544" y2="432.27272727272725" /><circle cx="711.8181818181818" cy="376.3636363636364" fill="#215E61" r="50.31818181818182" stroke="none" stroke-width="3.2" /><line stroke="#FE7F2D" stroke-width="1.92" x1="767.7272727272727" x2="767.7272727272727" y1="320.45454545454544" y2="432.27272727272725" /><line stroke="#FE7F2D" stroke-width="1.92" x1="786.3636363636364" x2="786.3636363636364" y1="320.45454545454544" y2="432.27272727272725" /><line stroke="#FE7F2D" stroke-width="1.92" x1="805.0" x2="805.0" y1="320.45454545454544" y2="432.27272727272725" /><line stroke="#FE7F2D" stroke-width="1.92" x1="823.6363636363636" x2="823.6363636363636" y1="320.45454545454544" y2="432.27272727272725" /><line stroke="#FE7F2D" stroke-width="1.92" x1="842.2727272727273" x2="842.2727272727273" y1="320.45454545454544" y2="432.27272727272725" /><line stroke="#FE7F2D" stroke-width="1.92" x1="860.9090909090909" x2="860.9090909090909" y1="320.45454545454544" y2="432.27272727272725" /><circle cx="935.4545454545454" cy="376.3636363636364" fill="#FE7F2D" r="50.31818181818182" stroke="none" stroke-width="3.2" /><circle cx="1047.2727272727273" cy="376.3636363636364" fill="none" r="50.31818181818182" stroke="#215E61" stroke-width="3.2" /><line stroke="#233D4D" stroke-width="1.92" x1="1103.181818181818" x2="1103.181818181818" y1="320.45454545454544" y2="432.27272727272725" /><line stroke="#233D4D" stroke-width="1.92" x1="1125.5454545454543" x2="1125.5454545454543" y1="320.45454545454544" y2="432.27272727272725" /><line stroke="#233D4D" stroke-width="1.92" x1="1147.9090909090908" x2="1147.9090909090908" y1="320.45454545454544" y2="432.27272727272725" /><line stroke="#233D4D" stroke-width="1.92" x1="1170.272727272727" x2="1170.272727272727" y1="320.45454545454544" y2="432.27272727272725" /><line stroke="#233D4D" stroke-width="1.92" x1="1192.6363636363635" x2="1192.6363636363635" y1="320.45454545454544" y2="432.27272727272725" /><line stroke="#215E61" stroke-width="1.92" x1="96.81818181818181" x2="96.81818181818181" y1="432.27272727272725" y2="544.090909090909" /><line stroke="#215E61" stroke-width="1.92" x1="115.45454545454545" x2="115.45454545454545" y1="432.27272727272725" y2="544.090909090909" /><line stroke="#215E61" stroke-width="1.92" x1="134.0909090909091" x2="134.0909090909091" y1="432.27272727272725" y2="544.090909090909" /><line stroke="#215E61" stroke-width="1.92" x1="152.72727272727272" x2="152.72727272727272" y1="432.27272727272725" y2="544.090909090909" /><line stroke="#215E61" stroke-width="1.92" x1="171.36363636363637" x2="171.36363636363637" y1="432.27272727272725" y2="544.090909090909" /><line stroke="#215E61" stroke-width="1.92" x1="190.0" x2="190.0" y1="432.27272727272725" y2="544.090909090909" /><circle cx="264.5454545454545" cy="488.18181818181813" fill="#FE7F2D" r="50.31818181818182" stroke="none" stroke-width="3.2" /><circle cx="376.3636363636364" cy="488.18181818181813" fill="#233D4D" r="50.31818181818182" stroke="none" stroke-width="3.2" /><line stroke="#FE7F2D" stroke-width="1.92" x1="432.27272727272725" x2="432.27272727272725" y1="432.27272727272725" y2="544.090909090909" /><line stroke="#FE7F2D" stroke-width="1.92" x1="448.2467532467532" x2="448.2467532467532" y1="432.27272727272725" y2="544.090909090909" /><line stroke="#FE7F2D" stroke-width="1.92" x1="464.2207792207792" x2="464.2207792207792" y1="432.27272727272725" y2="544.090909090909" /><line stroke="#FE7F2D" stroke-width="1.92" x1="480.19480519480516" x2="480.19480519480516" y1="432.27272727272725" y2="544.090909090909" /><line stroke="#FE7F2D" stroke-width="1.92" x1="496.16883116883116" x2="496.16883116883116" y1="432.27272727272725" y2="544.090909090909" /><line stroke="#FE7F2D" stroke-width="1.92" x1="512.1428571428571" x2="512.1428571428571" y1="432.27272727272725" y2="544.090909090909" /><line stroke="#FE7F2D" stroke-width="1.92" x1="528.1168831168831" x2="528.1168831168831" y1="432.27272727272725" y2="544.090909090909" /><line stroke="#215E61" stroke-width="1.92" x1="544.090909090909" x2="544.090909090909" y1="432.27272727272725" y2="544.090909090909" /><line stroke="#215E61" stroke-width="1.92" x1="560.064935064935" x2="560.064935064935" y1="432.27272727272725" y2="544.090909090909" /><line stroke="#215E61" stroke-width="1.92" x1="576.0389610389609" x2="576.0389610389609" y1="432.27272727272725" y2="544.090909090909" /><line stroke="#215E61" stroke-width="1.92" x1="592.012987012987" x2="592.012987012987" y1="432.27272727272725" y2="544.090909090909" /><line stroke="#215E61" stroke-width="1.92" x1="607.9870129870129" x2="607.9870129870129" y1="432.27272727272725" y2="544.090909090909" /><line stroke="#215E61" stroke-width="1.92" x1="623.9610389610389" x2="623.9610389610389" y1="432.27272727272725" y2="544.090909090909" /><line stroke="#215E61" stroke-width="1.92" x1="639.9350649350648" x2="639.9350649350648" y1="432.27272727272725" y2="544.090909090909" /><circle cx="711.8181818181818" cy="488.18181818181813" fill="none" r="50.31818181818182" stroke="#215E61" stroke-width="3.2" /><polygon fill="#233D4D" points="823.6363636363636,432.27272727272725 767.7272727272727,529.11011333226 879.5454545454545,529.11011333226" stroke="none" stroke-width="3.2" /><polygon fill="#FE7F2D" points="935.4545454545454,432.27272727272725 879.5454545454545,529.11011333226 991.3636363636363,529.11011333226" stroke="none" stroke-width="3.2" /><polygon fill="#233D4D" points="1047.2727272727273,432.27272727272725 991.3636363636363,529.11011333226 1103.181818181818,529.11011333226" stroke="none" stroke-width="3.2" /><polygon fill="#215E61" points="1159.090909090909,432.27272727272725 1103.181818181818,529.11011333226 1214.9999999999998,529.11011333226" stroke="none" stroke-width="3.2" /><polygon fill="#FE7F2D" points="40.90909090909091,544.090909090909 -15.0,640.9282951504417 96.81818181818181,640.9282951504417" stroke="none" stroke-width="3.2" /><polygon fill="#FE7F2D" points="152.72727272727272,544.090909090909 96.81818181818181,640.9282951504417 208.63636363636363,640.9282951504417" stroke="none" stroke-width="3.2" /><circle cx="264.5454545454545" cy="599.9999999999999" fill="#233D4D" r="50.31818181818182" stroke="none" stroke-width="3.2" /><polygon fill="#215E61" points="488.18181818181813,544.090909090909 432.27272727272725,640.9282951504417 544.090909090909,640.9282951504417" stroke="none" stroke-width="3.2" /><polygon fill="#215E61" points="599.9999999999999,544.090909090909 544.090909090909,640.9282951504417 655.9090909090908,640.9282951504417" stroke="none" stroke-width="3.2" /><line stroke="#FE7F2D" stroke-width="1.92" x1="767.7272727272727" x2="767.7272727272727" y1="544.090909090909" y2="655.9090909090908" /><line stroke="#FE7F2D" stroke-width="1.92" x1="786.3636363636364" x2="786.3636363636364" y1="544.090909090909" y2="655.9090909090908" /><line stroke="#FE7F2D" stroke-width="1.92" x1="805.0" x2="805.0" y1="544.090909090909" y2="655.9090909090908" /><line stroke="#FE7F2D" stroke-width="1.92" x1="823.6363636363636" x2="823.6363636363636" y1="544.090909090909" y2="655.9090909090908" /><line stroke="#FE7F2D" stroke-width="1.92" x1="842.2727272727273" x2="842.2727272727273" y1="544.090909090909" y2="655.9090909090908" /><line stroke="#FE7F2D" stroke-width="1.92" x1="860.9090909090909" x2="860.9090909090909" y1="544.090909090909" y2="655.9090909090908" /><circle cx="1047.2727272727273" cy="599.9999999999999" fill="#233D4D" r="50.31818181818182" stroke="none" stroke-width="3.2" /><circle cx="40.90909090909091" cy="711.8181818181818" fill="#215E61" r="50.31818181818182" stroke="none" stroke-width="3.2" /><polygon fill="#FE7F2D" points="152.72727272727272,655.9090909090909 96.81818181818181,752.7464769686236 208.63636363636363,752.7464769686236" stroke="none" stroke-width="3.2" /><line stroke="#FE7F2D" stroke-width="1.92" x1="320.45454545454544" x2="320.45454545454544" y1="655.9090909090909" y2="767.7272727272727" /><line stroke="#FE7F2D" stroke-width="1.92" x1="348.4090909090909" x2="348.4090909090909" y1="655.9090909090909" y2="767.7272727272727" /><line stroke="#FE7F2D" stroke-width="1.92" x1="376.3636363636364" x2="376.3636363636364" y1="655.9090909090909" y2="767.7272727272727" /><line stroke="#FE7F2D" stroke-width="1.92" x1="404.3181818181818" x2="404.3181818181818" y1="655.9090909090909" y2="767.7272727272727" /><circle cx="711.8181818181818" cy="711.8181818181818" fill="#215E61" r="50.31818181818182" stroke="none" stroke-width="3.2" /><line stroke="#233D4D" stroke-width="1.92" x1="879.5454545454545" x2="879.5454545454545" y1="655.9090909090909" y2="767.7272727272727" /><line stroke="#233D4D" stroke-width="1.92" x1="901.9090909090909" x2="901.9090909090909" y1="655.9090909090909" y2="767.7272727272727" /><line stroke="#233D4D" stroke-width="1.92" x1="924.2727272727273" x2="924.2727272727273" y1="655.9090909090909" y2="767.7272727272727" /><line stroke="#233D4D" stroke-width="1.92" x1="946.6363636363636" x2="946.6363636363636" y1="655.9090909090909" y2="767.7272727272727" /><line stroke="#233D4D" stroke-width="1.92" x1="969.0" x2="969.0" y1="655.9090909090909" y2="767.7272727272727" /><circle cx="1047.2727272727273" cy="711.8181818181818" fill="#215E61" r="50.31818181818182" stroke="none" stroke-width="3.2" /><circle cx="1159.090909090909" cy="711.8181818181818" fill="#233D4D" r="50.31818181818182" stroke="none" stroke-width="3.2" /><polygon fill="none" points="152.72727272727272,767.7272727272727 96.81818181818181,864.5646587868055 208.63636363636363,864.5646587868055" stroke="#215E61" stroke-width="3.2" /><line stroke="#215E61" stroke-width="1.92" x1="208.63636363636363" x2="208.63636363636363" y1="767.7272727272727" y2="879.5454545454545" /><line stroke="#215E61" stroke-width="1.92" x1="224.6103896103896" x2="224.6103896103896" y1="767.7272727272727" y2="879.5454545454545" /><line stroke="#215E61" stroke-width="1.92" x1="240.58441558441558" x2="240.58441558441558" y1="767.7272727272727" y2="879.5454545454545" /><line stroke="#215E61" stroke-width="1.92" x1="256.55844155844153" x2="256.55844155844153" y1="767.7272727272727" y2="879.5454545454545" /><line stroke="#215E61" stroke-width="1.92" x1="272.53246753246754" x2="272.53246753246754" y1="767.7272727272727" y2="879.5454545454545" /><line stroke="#215E61" stroke-width="1.92" x1="288.5064935064935" x2="288.5064935064935" y1="767.7272727272727" y2="879.5454545454545" /><line stroke="#215E61" stroke-width="1.92" x1="304.48051948051943" x2="304.48051948051943" y1="767.7272727272727" y2="879.5454545454545" /><line stroke="#233D4D" stroke-width="1.92" x1="320.45454545454544" x2="320.45454545454544" y1="767.7272727272727" y2="879.5454545454545" /><line stroke="#233D4D" stroke-width="1.92" x1="342.8181818181818" x2="342.8181818181818" y1="767.7272727272727" y2="879.5454545454545" /><line stroke="#233D4D" stroke-width="1.92" x1="365.1818181818182" x2="365.1818181818182" y1="767.7272727272727" y2="879.5454545454545" /><line stroke="#233D4D" stroke-width="1.92" x1="387.5454545454545" x2="387.5454545454545" y1="767.7272727272727" y2="879.5454545454545" /><line stroke="#233D4D" stroke-width="1.92" x1="409.9090909090909" x2="409.9090909090909" y1="767.7272727272727" y2="879.5454545454545" /><line stroke="#215E61" stroke-width="1.92" x1="432.27272727272725" x2="432.27272727272725" y1="767.7272727272727" y2="879.5454545454545" /><line stroke="#215E61" stroke-width="1.92" x1="448.2467532467532" x2="448.2467532467532" y1="767.7272727272727" y2="879.5454545454545" /><line stroke="#215E61" stroke-width="1.92" x1="464.2207792207792" x2="464.2207792207792" y1="767.7272727272727" y2="879.5454545454545" /><line stroke="#215E61" stroke-width="1.92" x1="480.19480519480516" x2="480.19480519480516" y1="767.7272727272727" y2="879.5454545454545" /><line stroke="#215E61" stroke-width="1.92" x1="496.16883116883116" x2="496.16883116883116" y1="767.7272727272727" y2="879.5454545454545" /><line stroke="#215E61" stroke-width="1.92" x1="512.1428571428571" x2="512.1428571428571" y1="767.7272727272727" y2="879.5454545454545" /><line stroke="#215E61" stroke-width="1.92" x1="528.1168831168831" x2="528.1168831168831" y1="767.7272727272727" y2="879.5454545454545" /><polygon fill="none" points="599.9999999999999,767.7272727272727 544.090909090909,864.5646587868055 655.9090909090908,864.5646587868055" stroke="#233D4D" stroke-width="3.2" /><circle cx="711.8181818181818" cy="823.6363636363636" fill="#FE7F2D" r="50.31818181818182" stroke="none" stroke-width="3.2" /><circle cx="823.6363636363636" cy="823.6363636363636" fill="#233D4D" r="50.31818181818182" stroke="none" stroke-width="3.2" /><line stroke="#215E61" stroke-width="1.92" x1="879.5454545454545" x2="879.5454545454545" y1="767.7272727272727" y2="879.5454545454545" /><line stroke="#215E61" stroke-width="1.92" x1="895.5194805194805" x2="895.5194805194805" y1="767.7272727272727" y2="879.5454545454545" /><line stroke="#215E61" stroke-width="1.92" x1="911.4935064935064" x2="911.4935064935064" y1="767.7272727272727" y2="879.5454545454545" /><line stroke="#215E61" stroke-width="1.92" x1="927.4675324675325" x2="927.4675324675325" y1="767.7272727272727" y2="879.5454545454545" /><line stroke="#215E61" stroke-width="1.92" x1="943.4415584415584" x2="943.4415584415584" y1="767.7272727272727" y2="879.5454545454545" /><line stroke="#215E61" stroke-width="1.92" x1="959.4155844155844" x2="959.4155844155844" y1="767.7272727272727" y2="879.5454545454545" /><line stroke="#215E61" stroke-width="1.92" x1="975.3896103896103" x2="975.3896103896103" y1="767.7272727272727" y2="879.5454545454545" /><polygon fill="#233D4D" points="1047.2727272727273,767.7272727272727 991.3636363636363,864.5646587868055 1103.181818181818,864.5646587868055" stroke="none" stroke-width="3.2" /><circle cx="40.90909090909091" cy="935.4545454545454" fill="#233D4D" r="50.31818181818182" stroke="none" stroke-width="3.2" /><polygon fill="#215E61" points="152.72727272727272,879.5454545454545 96.81818181818181,976.3828406049872 208.63636363636363,976.3828406049872" stroke="none" stroke-width="3.2" /><polygon fill="none" points="264.5454545454545,879.5454545454545 208.63636363636363,976.3828406049872 320.45454545454544,976.3828406049872" stroke="#215E61" stroke-width="3.2" /><line stroke="#215E61" stroke-width="1.92" x1="320.45454545454544" x2="320.45454545454544" y1="879.5454545454545" y2="991.3636363636363" /><line stroke="#215E61" stroke-width="1.92" x1="336.4285714285714" x2="336.4285714285714" y1="879.5454545454545" y2="991.3636363636363" /><line stroke="#215E61" stroke-width="1.92" x1="352.4025974025974" x2="352.4025974025974" y1="879.5454545454545" y2="991.3636363636363" /><line stroke="#215E61" stroke-width="1.92" x1="368.37662337662334" x2="368.37662337662334" y1="879.5454545454545" y2="991.3636363636363" /><line stroke="#215E61" stroke-width="1.92" x1="384.35064935064935" x2="384.35064935064935" y1="879.5454545454545" y2="991.3636363636363" /><line stroke="#215E61" stroke-width="1.92" x1="400.3246753246753" x2="400.3246753246753" y1="879.5454545454545" y2="991.3636363636363" /><line stroke="#215E61" stroke-width="1.92" x1="416.2987012987013" x2="416.2987012987013" y1="879.5454545454545" y2="991.3636363636363" /><circle cx="488.18181818181813" cy="935.4545454545454" fill="none" r="50.31818181818182" stroke="#FE7F2D" stroke-width="3.2" /><polygon fill="none" points="599.9999999999999,879.5454545454545 544.090909090909,976.3828406049872 655.9090909090908,976.3828406049872" stroke="#FE7F2D" stroke-width="3.2" /><polygon fill="#215E61" points="711.8181818181818,879.5454545454545 655.9090909090909,976.3828406049872 767.7272727272727,976.3828406049872" stroke="none" stroke-width="3.2" /><circle cx="823.6363636363636" cy="935.4545454545454" fill="#FE7F2D" r="50.31818181818182" stroke="none" stroke-width="3.2" /><line stroke="#FE7F2D" stroke-width="1.92" x1="879.5454545454545" x2="879.5454545454545" y1="879.5454545454545" y2="991.3636363636363" /><line stroke="#FE7F2D" stroke-width="1.92" x1="901.9090909090909" x2="901.9090909090909" y1="879.5454545454545" y2="991.3636363636363" /><line stroke="#FE7F2D" stroke-width="1.92" x1="924.2727272727273" x2="924.2727272727273" y1="879.5454545454545" y2="991.3636363636363" /><line stroke="#FE7F2D" stroke-width="1.92" x1="946.6363636363636" x2="946.6363636363636" y1="879.5454545454545" y2="991.3636363636363" /><line stroke="#FE7F2D" stroke-width="1.92" x1="969.0" x2="969.0" y1="879.5454545454545" y2="991.3636363636363" /><line stroke="#215E61" stroke-width="1.92" x1="991.3636363636363" x2="991.3636363636363" y1="879.5454545454545" y2="991.3636363636363" /><line stroke="#215E61" stroke-width="1.92" x1="1028.6363636363635" x2="1028.6363636363635" y1="879.5454545454545" y2="991.3636363636363" /><line stroke="#215E61" stroke-width="1.92" x1="1065.9090909090908" x2="1065.9090909090908" y1="879.5454545454545" y2="991.3636363636363" /><polygon fill="#FE7F2D" points="1159.090909090909,879.5454545454545 1103.181818181818,976.3828406049872 1214.9999999999998,976.3828406049872" stroke="none" stroke-width="3.2" /><line stroke="#215E61" stroke-width="1.92" x1="208.63636363636363" x2="208.63636363636363" y1="991.3636363636363" y2="1103.181818181818" /><line stroke="#215E61" stroke-width="1.92" x1="231.0" x2="231.0" y1="991.3636363636363" y2="1103.181818181818" /><line stroke="#215E61" stroke-width="1.92" x1="253.36363636363635" x2="253.36363636363635" y1="991.3636363636363" y2="1103.181818181818" /><line stroke="#215E61" stroke-width="1.92" x1="275.72727272727275" x2="275.72727272727275" y1="991.3636363636363" y2="1103.181818181818" /><line stroke="#215E61" stroke-width="1.92" x1="298.09090909090907" x2="298.09090909090907" y1="991.3636363636363" y2="1103.181818181818" /><line stroke="#215E61" stroke-width="1.92" x1="544.090909090909" x2="544.090909090909" y1="991.3636363636363" y2="1103.181818181818" /><line stroke="#215E61" stroke-width="1.92" x1="572.0454545454545" x2="572.0454545454545" y1="991.3636363636363" y2="1103.181818181818" /><line stroke="#215E61" stroke-width="1.92" x1="599.9999999999999" x2="599.9999999999999" y1="991.3636363636363" y2="1103.181818181818" /><line stroke="#215E61" stroke-width="1.92" x1="627.9545454545454" x2="627.9545454545454" y1="991.3636363636363" y2="1103.181818181818" /><polygon fill="#233D4D" points="711.8181818181818,991.3636363636363 655.9090909090909,1088.201022423169 767.7272727272727,1088.201022423169" stroke="none" stroke-width="3.2" /><line stroke="#FE7F2D" stroke-width="1.92" x1="767.7272727272727" x2="767.7272727272727" y1="991.3636363636363" y2="1103.181818181818" /><line stroke="#FE7F2D" stroke-width="1.92" x1="790.0909090909091" x2="790.0909090909091" y1="991.3636363636363" y2="1103.181818181818" /><line stroke="#FE7F2D" stroke-width="1.92" x1="812.4545454545455" x2="812.4545454545455" y1="991.3636363636363" y2="1103.181818181818" /><line stroke="#FE7F2D" stroke-width="1.92" x1="834.8181818181819" x2="834.8181818181819" y1="991.3636363636363" y2="1103.181818181818" /><line stroke="#FE7F2D" stroke-width="1.92" x1="857.1818181818182" x2="857.1818181818182" y1="991.3636363636363" y2="1103.181818181818" /><circle cx="935.4545454545454" cy="1047.2727272727273" fill="#FE7F2D" r="50.31818181818182" stroke="none" stroke-width="3.2" /><circle cx="1047.2727272727273" cy="1047.2727272727273" fill="#FE7F2D" r="50.31818181818182" stroke="none" stroke-width="3.2" /><line stroke="#215E61" stroke-width="1.92" x1="1103.181818181818" x2="1103.181818181818" y1="991.3636363636363" y2="1103.181818181818" /><line stroke="#215E61" stroke-width="1.92" x1="1140.4545454545453" x2="1140.4545454545453" y1="991.3636363636363" y2="1103.181818181818" /><line stroke="#215E61" stroke-width="1.92" x1="1177.7272727272725" x2="1177.7272727272725" y1="991.3636363636363" y2="1103.181818181818" /><polygon fill="#233D4D" points="40.90909090909091,1103.181818181818 -15.0,1200.0192042413507 96.81818181818181,1200.0192042413507" stroke="none" stroke-width="3.2" /><circle cx="152.72727272727272" cy="1159.090909090909" fill="none" r="50.31818181818182" stroke="#215E61" stroke-width="3.2" /><circle cx="376.3636363636364" cy="1159.090909090909" fill="#FE7F2D" r="50.31818181818182" stroke="none" stroke-width="3.2" /><polygon fill="none" points="488.18181818181813,1103.181818181818 432.27272727272725,1200.0192042413507 544.090909090909,1200.0192042413507" stroke="#FE7F2D" stroke-width="3.2" /><line stroke="#215E61" stroke-width="1.92" x1="544.090909090909" x2="544.090909090909" y1="1103.181818181818" y2="1214.9999999999998" /><line stroke="#215E61" stroke-width="1.92" x1="581.3636363636363" x2="581.3636363636363" y1="1103.181818181818" y2="1214.9999999999998" /><line stroke="#215E61" stroke-width="1.92" x1="618.6363636363635" x2="618.6363636363635" y1="1103.181818181818" y2="1214.9999999999998" /><circle cx="711.8181818181818" cy="1159.090909090909" fill="none" r="50.31818181818182" stroke="#215E61" stroke-width="3.2" /><line stroke="#FE7F2D" stroke-width="1.92" x1="767.7272727272727" x2="767.7272727272727" y1="1103.181818181818" y2="1214.9999999999998" /><line stroke="#FE7F2D" stroke-width="1.92" x1="795.6818181818182" x2="795.6818181818182" y1="1103.181818181818" y2="1214.9999999999998" /><line stroke="#FE7F2D" stroke-width="1.92" x1="823.6363636363636" x2="823.6363636363636" y1="1103.181818181818" y2="1214.9999999999998" /><line stroke="#FE7F2D" stroke-width="1.92" x1="851.5909090909091" x2="851.5909090909091" y1="1103.181818181818" y2="1214.9999999999998" /><line stroke="#215E61" stroke-width="1.92" x1="879.5454545454545" x2="879.5454545454545" y1="1103.181818181818" y2="1214.9999999999998" /><line stroke="#215E61" stroke-width="1.92" x1="898.1818181818181" x2="898.1818181818181" y1="1103.181818181818" y2="1214.9999999999998" /><line stroke="#215E61" stroke-width="1.92" x1="916.8181818181818" x2="916.8181818181818" y1="1103.181818181818" y2="1214.9999999999998" /><line stroke="#215E61" stroke-width="1.92" x1="935.4545454545454" x2="935.4545454545454" y1="1103.181818181818" y2="1214.9999999999998" /><line stroke="#215E61" stroke-width="1.92" x1="954.090909090909" x2="954.090909090909" y1="1103.181818181818" y2="1214.9999999999998" /><line stroke="#215E61" stroke-width="1.92" x1="972.7272727272726" x2="972.7272727272726" y1="1103.181818181818" y2="1214.9999999999998" /><line stroke="#FE7F2D" stroke-width="1.92" x1="991.3636363636363" x2="991.3636363636363" y1="1103.181818181818" y2="1214.9999999999998" /><line stroke="#FE7F2D" stroke-width="1.92" x1="1009.9999999999999" x2="1009.9999999999999" y1="1103.181818181818" y2="1214.9999999999998" /><line stroke="#FE7F2D" stroke-width="1.92" x1="1028.6363636363635" x2="1028.6363636363635" y1="1103.181818181818" y2="1214.9999999999998" /><line stroke="#FE7F2D" stroke-width="1.92" x1="1047.2727272727273" x2="1047.2727272727273" y1="1103.181818181818" y2="1214.9999999999998" /><line stroke="#FE7F2D" stroke-width="1.92" x1="1065.9090909090908" x2="1065.9090909090908" y1="1103.181818181818" y2="1214.9999999999998" /><line stroke="#FE7F2D" stroke-width="1.92" x1="1084.5454545454545" x2="1084.5454545454545" y1="1103.181818181818" y2="1214.9999999999998" /><circle cx="1159.090909090909" cy="1159.090909090909" fill="#FE7F2D" r="50.31818181818182" stroke="none" stroke-width="3.2" /></svg>